<svg width="134" height="32" viewBox="0 0 134 32" fill="none" xmlns="http://www.w3.org/2000/svg">
<path d="M37.4937 28V4.95998H46.6297C48.187 4.95998 49.4617 5.27465 50.4537 5.90398C51.4563 6.52265 52.1977 7.31731 52.6777 8.28798C53.1683 9.25865 53.4137 10.2613 53.4137 11.296C53.4137 12.5653 53.1097 13.6426 52.5017 14.528C51.9043 15.4133 51.0883 16.0106 50.0537 16.32V15.52C51.5043 15.8506 52.603 16.5386 53.3497 17.584C54.107 18.6293 54.4857 19.8186 54.4857 21.152C54.4857 22.5173 54.2243 23.712 53.7017 24.736C53.179 25.76 52.4003 26.56 51.3657 27.136C50.3417 27.712 49.0723 28 47.5577 28H37.4937ZM41.3977 24.368H47.0777C47.7497 24.368 48.3523 24.2346 48.8857 23.968C49.419 23.6906 49.835 23.3066 50.1337 22.816C50.443 22.3146 50.5977 21.7226 50.5977 21.04C50.5977 20.4213 50.4643 19.8666 50.1977 19.376C49.931 18.8853 49.5417 18.496 49.0297 18.208C48.5177 17.9093 47.9043 17.76 47.1897 17.76H41.3977V24.368ZM41.3977 14.16H46.5817C47.1363 14.16 47.6323 14.0533 48.0697 13.84C48.507 13.6266 48.8537 13.312 49.1097 12.896C49.3657 12.48 49.4937 11.968 49.4937 11.36C49.4937 10.56 49.2377 9.89331 48.7257 9.35998C48.2137 8.82665 47.499 8.55998 46.5817 8.55998H41.3977V14.16Z" fill="#16161A"/>
<path d="M57.6812 28V10.72H61.0892V14.928L60.6732 14.384C60.8865 13.808 61.1692 13.2853 61.5212 12.816C61.8838 12.336 62.3158 11.9413 62.8172 11.632C63.2438 11.344 63.7132 11.12 64.2252 10.96C64.7478 10.7893 65.2812 10.688 65.8252 10.656C66.3692 10.6133 66.8972 10.6346 67.4092 10.72V14.32C66.8972 14.1706 66.3052 14.1226 65.6332 14.176C64.9718 14.2293 64.3745 14.416 63.8412 14.736C63.3078 15.024 62.8705 15.392 62.5292 15.84C62.1985 16.288 61.9532 16.8 61.7932 17.376C61.6332 17.9413 61.5532 18.5546 61.5532 19.216V28H57.6812Z" fill="#16161A"/>
<path d="M70.7824 8.09598V4.55998H74.6384V8.09598H70.7824ZM70.7824 28V10.72H74.6384V28H70.7824Z" fill="#16161A"/>
<path d="M86.1032 28.48C83.9698 28.48 82.2365 28 80.9032 27.04C79.5698 26.08 78.7591 24.7306 78.4711 22.992L82.4072 22.384C82.6098 23.2373 83.0578 23.9093 83.7512 24.4C84.4445 24.8906 85.3191 25.136 86.3751 25.136C87.3032 25.136 88.0178 24.9546 88.5191 24.592C89.0312 24.2186 89.2872 23.712 89.2872 23.072C89.2872 22.6773 89.1912 22.3626 88.9991 22.128C88.8178 21.8826 88.4125 21.648 87.7832 21.424C87.1538 21.2 86.1885 20.9173 84.8871 20.576C83.4365 20.192 82.2845 19.7813 81.4312 19.344C80.5778 18.896 79.9645 18.368 79.5912 17.76C79.2178 17.152 79.0312 16.416 79.0312 15.552C79.0312 14.4746 79.3138 13.536 79.8792 12.736C80.4445 11.936 81.2338 11.3226 82.2472 10.896C83.2605 10.4586 84.4552 10.24 85.8312 10.24C87.1751 10.24 88.3645 10.448 89.3992 10.864C90.4445 11.28 91.2872 11.872 91.9272 12.64C92.5672 13.408 92.9618 14.3093 93.1112 15.344L89.1752 16.048C89.0792 15.312 88.7432 14.7306 88.1672 14.304C87.6018 13.8773 86.8445 13.6373 85.8952 13.584C84.9885 13.5306 84.2578 13.6693 83.7032 14C83.1485 14.32 82.8712 14.7733 82.8712 15.36C82.8712 15.6906 82.9832 15.9733 83.2071 16.208C83.4311 16.4426 83.8792 16.6773 84.5512 16.912C85.2338 17.1466 86.2472 17.4346 87.5912 17.776C88.9672 18.128 90.0658 18.5333 90.8871 18.992C91.7192 19.44 92.3165 19.9786 92.6791 20.608C93.0525 21.2373 93.2392 22 93.2392 22.896C93.2392 24.6346 92.6045 26 91.3352 26.992C90.0765 27.984 88.3325 28.48 86.1032 28.48Z" fill="#16161A"/>
<path d="M106.872 28C105.73 28.2133 104.61 28.304 103.512 28.272C102.424 28.2506 101.448 28.0533 100.584 27.68C99.7197 27.296 99.0637 26.6933 98.6157 25.872C98.221 25.1253 98.013 24.3626 97.9916 23.584C97.9703 22.8053 97.9597 21.9253 97.9597 20.944V5.91998H101.8V20.72C101.8 21.4133 101.805 22.0213 101.816 22.544C101.837 23.0666 101.949 23.4933 102.152 23.824C102.536 24.464 103.149 24.8213 103.992 24.896C104.834 24.9706 105.794 24.928 106.872 24.768V28ZM94.8237 13.744V10.72H106.872V13.744H94.8237Z" fill="#16161A"/>
<path d="M117.344 28.48C115.616 28.48 114.107 28.0906 112.816 27.312C111.526 26.5333 110.523 25.4613 109.808 24.096C109.104 22.72 108.752 21.1413 108.752 19.36C108.752 17.5466 109.115 15.9573 109.84 14.592C110.566 13.2266 111.574 12.16 112.864 11.392C114.155 10.624 115.648 10.24 117.344 10.24C119.083 10.24 120.598 10.6293 121.888 11.408C123.179 12.1866 124.182 13.264 124.896 14.64C125.611 16.0053 125.968 17.5786 125.968 19.36C125.968 21.152 125.606 22.736 124.88 24.112C124.166 25.4773 123.163 26.5493 121.872 27.328C120.582 28.096 119.072 28.48 117.344 28.48ZM117.344 24.864C118.88 24.864 120.022 24.352 120.768 23.328C121.515 22.304 121.888 20.9813 121.888 19.36C121.888 17.6853 121.51 16.352 120.752 15.36C119.995 14.3573 118.859 13.856 117.344 13.856C116.31 13.856 115.456 14.0906 114.784 14.56C114.123 15.0186 113.632 15.664 113.312 16.496C112.992 17.3173 112.832 18.272 112.832 19.36C112.832 21.0346 113.211 22.3733 113.968 23.376C114.736 24.368 115.862 24.864 117.344 24.864Z" fill="#16161A"/>
<path d="M129.814 28V4.47998H133.67V28H129.814Z" fill="#16161A"/>
<path fill-rule="evenodd" clip-rule="evenodd" d="M23.619 0H0V15.2381H23.619C27.8269 15.2381 31.2381 11.8269 31.2381 7.61905C31.2381 3.41116 27.8269 0 23.619 0Z" fill="#16161A"/>
<path fill-rule="evenodd" clip-rule="evenodd" d="M23.619 32.0001C27.8269 32.0001 31.2381 28.5889 31.2381 24.381C31.2381 20.1731 27.8269 16.762 23.619 16.762C23.6143 16.762 23.6096 16.762 23.6048 16.762H0V32.0001L23.619 32.0001Z" fill="#16161A"/>
</svg>
