<svg width="102" height="30" viewBox="0 0 102 30" fill="none" xmlns="http://www.w3.org/2000/svg">
<path d="M37.812 6.76367H40.8662V23.1357H37.812V6.76367Z" fill="black"/>
<path d="M50.9766 10.5059C52.5585 10.5059 53.8273 10.9658 54.7826 11.8858C55.738 12.8057 56.2156 14.1701 56.2156 15.9788V23.1356H53.279V16.3532C53.279 15.2615 53.0205 14.443 52.5036 13.8972C51.9869 13.3359 51.2507 13.0552 50.2954 13.0552C49.2145 13.0552 48.3608 13.3827 47.7345 14.0375C47.108 14.6769 46.7945 15.6047 46.7945 16.8208V23.1356H43.8579V10.6462H46.6536V12.26C47.1393 11.6831 47.7502 11.2465 48.4863 10.9502C49.2225 10.654 50.0526 10.5059 50.9766 10.5059Z" fill="black"/>
<path d="M70.2837 10.6465L64.9035 23.1359H61.8729L56.4927 10.6465H59.5469L63.4468 19.9083L67.4643 10.6465H70.2837Z" fill="black"/>
<path d="M82.3941 16.961C82.3941 17.1639 82.3784 17.4521 82.3471 17.8265H72.503C72.6755 18.7463 73.1219 19.4792 73.8424 20.025C74.5785 20.5552 75.4869 20.8202 76.5675 20.8202C77.9459 20.8202 79.0814 20.3679 79.9741 19.4636L81.5484 21.2646C80.9844 21.9351 80.2716 22.4418 79.4102 22.7847C78.5488 23.1279 77.5778 23.2993 76.4972 23.2993C75.1188 23.2993 73.905 23.0264 72.8555 22.4809C71.8062 21.9351 70.9917 21.1787 70.4121 20.2121C69.8482 19.2298 69.5664 18.1226 69.5664 16.891C69.5664 15.6747 69.8405 14.5832 70.3888 13.6165C70.9524 12.6342 71.7279 11.8702 72.7145 11.3245C73.7012 10.7787 74.8134 10.5059 76.0506 10.5059C77.2724 10.5059 78.3609 10.7787 79.3163 11.3245C80.2873 11.8546 81.0391 12.6108 81.5717 13.5931C82.12 14.5599 82.3941 15.6826 82.3941 16.961ZM76.0506 12.8447C75.1109 12.8447 74.3121 13.1254 73.6542 13.6867C73.012 14.2324 72.6206 14.9653 72.4797 15.8852H79.5984C79.4728 14.9809 79.0891 14.248 78.4472 13.6867C77.805 13.1254 77.0062 12.8447 76.0506 12.8447Z" fill="black"/>
<path d="M86.8361 12.4708C87.6818 11.161 89.1697 10.74 91.2996 10.74V13.0789C91.0491 13.0321 90.822 13.0087 90.6184 13.0087C89.4752 13.0087 88.5822 13.5545 87.9403 14.2249C87.2981 14.8798 86.977 15.8308 86.977 17.0783V23.1359H84.04V10.6465H86.8361V12.4708Z" fill="black"/>
<path d="M101.208 22.4577C100.863 22.7383 100.44 22.9488 99.9389 23.0891C99.4535 23.2297 98.9366 23.2997 98.3883 23.2997C97.0099 23.2997 95.945 22.9412 95.1932 22.2239C94.4413 21.5067 94.0656 20.4618 94.0656 19.0899V13.079H91.998V10.7401H94.0656V7.88672H97.0022V10.7401H100.362V13.079H97.0022V19.0196C97.0022 19.6278 97.1511 20.0954 97.4486 20.423C97.7461 20.7347 98.1768 20.8909 98.7407 20.8909C99.3986 20.8909 99.9468 20.7191 100.385 20.3762L101.208 22.4577Z" fill="black"/>
<path fill-rule="evenodd" clip-rule="evenodd" d="M30.1313 14.9982C30.1313 23.2817 23.3864 29.9965 15.0657 29.9965C6.74514 29.9965 0 23.2817 0 14.9982C0 6.71494 6.74514 0 15.0657 0C23.3864 0 30.1313 6.71494 30.1313 14.9982ZM25.3966 14.9982C25.3966 20.6781 20.7714 25.2826 15.066 25.2826C14.6704 25.2826 14.2799 25.2605 13.8959 25.2176C19.0879 24.6744 23.1344 20.3026 23.1344 14.9897C23.1344 9.70365 19.1281 5.34896 13.9736 4.77056C14.3325 4.733 14.697 4.71374 15.066 4.71374C20.7714 4.71374 25.3966 9.31828 25.3966 14.9982ZM11.7297 22.2424C15.1345 21.6436 17.7243 18.6281 17.7243 14.9982C17.7243 11.3682 15.1345 8.35272 11.7297 7.75414C12.1417 7.68315 12.5654 7.64616 12.9978 7.64616C17.0765 7.64616 20.383 10.9378 20.383 14.9982C20.383 19.0586 17.0765 22.3503 12.9978 22.3503C12.5654 22.3503 12.1417 22.3132 11.7297 22.2424Z" fill="black"/>
</svg>
