<svg width="120" height="30" viewBox="0 0 120 30" fill="none" xmlns="http://www.w3.org/2000/svg">
<path d="M45.8256 8.30859V29.7533H40.5785V20.9249H32.4161V29.7533H27.1689V8.30859H32.4161V16.7093H40.5785V8.30859H45.8256Z" fill="#160606"/>
<path d="M51.0249 10.9346C50.1043 10.9346 49.3474 10.6698 48.7543 10.1404C48.1815 9.59048 47.895 8.91842 47.895 8.12418C47.895 7.30958 48.1815 6.63752 48.7543 6.108C49.3474 5.55816 50.1043 5.2832 51.0249 5.2832C51.925 5.2832 52.6617 5.55816 53.2341 6.108C53.8276 6.63752 54.1241 7.30958 54.1241 8.12418C54.1241 8.91842 53.8276 9.59048 53.2341 10.1404C52.6617 10.6698 51.925 10.9346 51.0249 10.9346ZM53.6331 12.7064V29.7522H48.386V12.7064H53.6331Z" fill="#160606"/>
<path d="M65.7511 25.3234V29.7531H63.0815C61.1789 29.7531 59.6959 29.2948 58.6324 28.3783C57.5685 27.4416 57.0368 25.9243 57.0368 23.8265V17.045H54.9502V12.7073H57.0368V8.55273H62.2839V12.7073H65.7204V17.045H62.2839V23.888C62.2839 24.3968 62.4066 24.7635 62.6519 24.9876C62.8976 25.2114 63.3066 25.3234 63.8795 25.3234H65.7511Z" fill="#160606"/>
<path d="M83.5875 20.9552C83.5875 21.444 83.5568 21.9533 83.4955 22.4826H71.6203C71.7022 23.5417 72.0398 24.3562 72.6329 24.9266C73.2465 25.4764 73.9933 25.7511 74.8728 25.7511C76.1824 25.7511 77.0925 25.2013 77.6041 24.1016H83.1885C82.9021 25.2218 82.3804 26.2299 81.6236 27.1259C80.8873 28.0219 79.9565 28.7244 78.8313 29.2337C77.7062 29.7429 76.4482 29.9972 75.0572 29.9972C73.3797 29.9972 71.8861 29.6409 70.577 28.928C69.2678 28.2155 68.2451 27.197 67.5084 25.8732C66.7721 24.5498 66.4038 23.0019 66.4038 21.2299C66.4038 19.4583 66.7621 17.9106 67.4778 16.5869C68.2144 15.2631 69.2372 14.2449 70.5463 13.5321C71.8555 12.8193 73.3591 12.4629 75.0572 12.4629C76.7141 12.4629 78.187 12.8091 79.4756 13.5015C80.7646 14.1939 81.7668 15.1817 82.4829 16.4647C83.2192 17.7477 83.5875 19.2445 83.5875 20.9552ZM78.2177 19.5804C78.2177 18.6845 77.9107 17.9717 77.2971 17.4422C76.6834 16.9127 75.9161 16.648 74.9958 16.648C74.116 16.648 73.3696 16.9025 72.7556 17.4116C72.1625 17.9208 71.7942 18.6437 71.6509 19.5804H78.2177Z" fill="#160606"/>
<path d="M84.085 21.2299C84.085 19.4583 84.4428 17.9106 85.1589 16.5869C85.8952 15.2631 86.9078 14.2449 88.1968 13.5321C89.506 12.8193 90.9991 12.4629 92.6766 12.4629C94.8245 12.4629 96.6146 13.0229 98.0464 14.143C99.4992 15.2631 100.45 16.8414 100.9 18.8779H95.3155C94.8451 17.5746 93.9349 16.9229 92.5846 16.9229C91.6232 16.9229 90.8559 17.2996 90.2834 18.0532C89.7105 18.7863 89.4241 19.8451 89.4241 21.2299C89.4241 22.6148 89.7105 23.6843 90.2834 24.4378C90.8559 25.1708 91.6232 25.5374 92.5846 25.5374C93.9349 25.5374 94.8451 24.8856 95.3155 23.5823H100.9C100.45 25.578 99.4992 27.1464 98.0464 28.2866C96.594 29.4273 94.8044 29.9972 92.6766 29.9972C90.9991 29.9972 89.506 29.6409 88.1968 28.928C86.9078 28.2155 85.8952 27.197 85.1589 25.8732C84.4428 24.5498 84.085 23.0019 84.085 21.2299Z" fill="#160606"/>
<path d="M113.004 12.5229C114.968 12.5229 116.543 13.1746 117.73 14.478C118.916 15.761 119.51 17.5328 119.51 19.7934V29.752H114.293V20.4959C114.293 19.3556 113.996 18.4695 113.403 17.8383C112.81 17.2069 112.012 16.8912 111.01 16.8912C110.008 16.8912 109.21 17.2069 108.617 17.8383C108.023 18.4695 107.727 19.3556 107.727 20.4959V29.752H102.479V7.14648H107.727V14.9973C108.258 14.2438 108.985 13.643 109.905 13.195C110.826 12.7469 111.859 12.5229 113.004 12.5229Z" fill="#160606"/>
<path d="M0 18.5429V0H6.21009V9.53195C7.29394 9.11541 8.4718 8.88706 9.70326 8.88706C15.0622 8.88706 19.4064 13.2119 19.4064 18.5469V29.7523H13.1964V18.5469C13.1964 16.6263 11.6325 15.0694 9.70326 15.0694C7.77487 15.0694 6.21145 16.6249 6.21009 18.5443C6.21009 18.5452 6.21009 18.5461 6.21009 18.5469V29.7523H0V18.5469C0 18.5455 0 18.5442 0 18.5429Z" fill="#160606"/>
<path d="M13.1963 6.18302V0H19.4062V6.18302H13.1963Z" fill="#160606"/>
</svg>
