<svg width="98" height="30" viewBox="0 0 98 30" fill="none" xmlns="http://www.w3.org/2000/svg">
<path d="M15.0657 29.9965C23.3862 29.9965 30.1313 23.2815 30.1313 14.9982C30.1313 6.71494 23.3862 0 15.0657 0C6.74513 0 0 6.71494 0 14.9982C0 23.2815 6.74513 29.9965 15.0657 29.9965Z" fill="black"/>
<path fill-rule="evenodd" clip-rule="evenodd" d="M19.9795 7.19443C18.7589 6.58866 17.3299 6.5602 16.0859 7.11683L8.5989 10.4672C8.09802 10.6914 7.77584 11.1872 7.77584 11.7339V12.6175C7.77584 13.1441 8.07503 13.6254 8.54843 13.8603L14.6005 16.8641C14.9925 17.0585 15.4534 17.0585 15.8454 16.8641L21.9506 13.834C23.0228 13.3019 24.283 14.0783 24.283 15.2709V16.4027C24.283 17.0116 23.9371 17.5682 23.3897 17.8398L15.9425 21.5357C15.4894 21.7607 14.9565 21.7607 14.5034 21.5357L8.70182 18.6564C8.27613 18.445 7.77584 18.7533 7.77584 19.2269C7.77584 19.4685 7.91316 19.6896 8.13047 19.7973L14.6081 23.0122C14.9973 23.2055 15.4548 23.2069 15.8454 23.0159L20.929 20.5314C21.3288 20.3359 21.8117 20.5 22.0081 20.898C22.2042 21.2961 22.0393 21.7771 21.6396 21.9726L15.9366 24.7601C15.4852 24.9806 14.9563 24.979 14.5062 24.7556L7.05629 21.0583C6.50895 20.7867 6.16309 20.2301 6.16309 19.6212V18.1967C6.16309 17.0041 7.42319 16.2278 8.49539 16.7599L14.6005 19.7901C14.9925 19.9845 15.4534 19.9845 15.8454 19.7901L22.3884 16.5427C22.5611 16.4569 22.6702 16.2814 22.6702 16.0894C22.6702 15.7131 22.2726 15.4681 21.9344 15.6362L15.9425 18.61C15.4894 18.8347 14.9565 18.8347 14.5034 18.61L7.05629 14.9137C6.50895 14.6421 6.16309 14.0858 6.16309 13.4769V10.8355C6.16309 10.2035 6.53554 9.63025 7.11462 9.37114L15.4247 5.65244C17.1098 4.89839 19.0457 4.93697 20.6991 5.75757C23.7153 7.2545 23.6525 11.5602 20.5939 12.9692L15.9168 15.1237C15.4682 15.3304 14.9496 15.3209 14.5087 15.0982L10.0861 12.8606C9.6891 12.6598 9.5308 12.1765 9.73254 11.7813C9.9343 11.386 10.4197 11.2284 10.8167 11.4293L14.636 13.3614C15.0171 13.5542 15.466 13.5624 15.8538 13.3837L19.9165 11.5121C21.7478 10.6685 21.7855 8.09068 19.9795 7.19443Z" fill="white"/>
<path d="M39.5471 10.6982V13.8958H43.86V15.9239H39.5471V19.304H44.4108V21.3871H36.9775V8.61523H44.4108V10.6982H39.5471Z" fill="black"/>
<path d="M48.5813 12.7437C48.9116 12.2565 49.3644 11.8606 49.9394 11.5561C50.527 11.2515 51.1938 11.0993 51.9401 11.0993C52.8089 11.0993 53.592 11.3124 54.2895 11.7388C54.999 12.1651 55.5558 12.7742 55.9595 13.5659C56.3755 14.3454 56.5836 15.2531 56.5836 16.2885C56.5836 17.3237 56.3755 18.2436 55.9595 19.0474C55.5558 19.8392 54.999 20.4544 54.2895 20.893C53.592 21.3312 52.8089 21.5507 51.9401 21.5507C51.1815 21.5507 50.5147 21.4046 49.9394 21.1121C49.3767 20.8077 48.9239 20.4177 48.5813 19.9428V21.3862H46.0117V7.86523H48.5813V12.7437ZM53.9589 16.2885C53.9589 15.6794 53.8305 15.1556 53.5736 14.7171C53.3289 14.2663 52.9986 13.9252 52.5823 13.6938C52.1786 13.4624 51.7381 13.3467 51.261 13.3467C50.7959 13.3467 50.3554 13.4685 49.9394 13.7121C49.5357 13.9435 49.2054 14.2846 48.9484 14.7354C48.7037 15.1859 48.5813 15.7158 48.5813 16.3249C48.5813 16.934 48.7037 17.4639 48.9484 17.9144C49.2054 18.3652 49.5357 18.7124 49.9394 18.956C50.3554 19.1876 50.7959 19.3032 51.261 19.3032C51.7381 19.3032 52.1786 19.1815 52.5823 18.9376C52.9986 18.6941 53.3289 18.3469 53.5736 17.8964C53.8305 17.4456 53.9589 16.9096 53.9589 16.2885Z" fill="black"/>
<path d="M62.2314 21.551C61.2527 21.551 60.3716 21.3377 59.5885 20.9114C58.8054 20.4728 58.1874 19.8579 57.7349 19.066C57.2943 18.2742 57.0742 17.3607 57.0742 16.3253C57.0742 15.2898 57.3005 14.3763 57.7533 13.5846C58.2181 12.7928 58.8483 12.1837 59.6435 11.7574C60.4389 11.3189 61.3261 11.0996 62.3048 11.0996C63.2838 11.0996 64.171 11.3189 64.9661 11.7574C65.7615 12.1837 66.3856 12.7928 66.8382 13.5846C67.3032 14.3763 67.5356 15.2898 67.5356 16.3253C67.5356 17.3607 67.2971 18.2742 66.82 19.066C66.3549 19.8579 65.7188 20.4728 64.9111 20.9114C64.1157 21.3377 63.2227 21.551 62.2314 21.551ZM62.2314 19.3218C62.6965 19.3218 63.1309 19.2121 63.5346 18.993C63.9506 18.7616 64.2809 18.4206 64.5256 17.9698C64.7705 17.519 64.8927 16.971 64.8927 16.3253C64.8927 15.3629 64.6358 14.626 64.1219 14.1144C63.6203 13.5906 63.0023 13.3288 62.2682 13.3288C61.5339 13.3288 60.9162 13.5906 60.4143 14.1144C59.925 14.626 59.6803 15.3629 59.6803 16.3253C59.6803 17.2876 59.9188 18.0306 60.3962 18.5544C60.8856 19.066 61.4974 19.3218 62.2314 19.3218Z" fill="black"/>
<path d="M73.2014 21.551C72.2224 21.551 71.3417 21.3377 70.5585 20.9114C69.7754 20.4728 69.1574 19.8579 68.7049 19.066C68.2644 18.2742 68.0439 17.3607 68.0439 16.3253C68.0439 15.2898 68.2705 14.3763 68.723 13.5846C69.1881 12.7928 69.8183 12.1837 70.6135 11.7574C71.4089 11.3189 72.2961 11.0996 73.2748 11.0996C74.2538 11.0996 75.1407 11.3189 75.9361 11.7574C76.7315 12.1837 77.3557 12.7928 77.8082 13.5846C78.2733 14.3763 78.5057 15.2898 78.5057 16.3253C78.5057 17.3607 78.2671 18.2742 77.7898 19.066C77.325 19.8579 76.6886 20.4728 75.8812 20.9114C75.0858 21.3377 74.1924 21.551 73.2014 21.551ZM73.2014 19.3218C73.6665 19.3218 74.1009 19.2121 74.5046 18.993C74.9206 18.7616 75.2509 18.4206 75.4956 17.9698C75.7403 17.519 75.8628 16.971 75.8628 16.3253C75.8628 15.3629 75.6058 14.626 75.0919 14.1144C74.5903 13.5906 73.9723 13.3288 73.2383 13.3288C72.504 13.3288 71.886 13.5906 71.3843 14.1144C70.895 14.626 70.6503 15.3629 70.6503 16.3253C70.6503 17.2876 70.8889 18.0306 71.3659 18.5544C71.8556 19.066 72.4674 19.3218 73.2014 19.3218Z" fill="black"/>
<path d="M85.6766 21.3862L82.2263 17.074V21.3862H79.6567V7.86523H82.2263V15.5575L85.6401 11.2637H88.9805L84.502 16.3432L89.017 21.3862H85.6766Z" fill="black"/>
<path d="M93.5314 21.551C92.6995 21.551 91.9531 21.4049 91.2925 21.1125C90.6316 20.8081 90.1054 20.3998 89.7139 19.8882C89.3345 19.3766 89.1267 18.8102 89.0898 18.1889H91.6778C91.7269 18.5789 91.9163 18.9016 92.2466 19.1574C92.5892 19.4132 93.0116 19.541 93.5133 19.541C94.0026 19.541 94.3821 19.4438 94.651 19.2488C94.9325 19.0538 95.0731 18.8041 95.0731 18.4997C95.0731 18.1706 94.9018 17.927 94.5592 17.7687C94.2289 17.5982 93.6969 17.4154 92.9625 17.2207C92.204 17.038 91.5799 16.8491 91.0905 16.6541C90.6134 16.4594 90.1972 16.1608 89.8426 15.7589C89.5 15.3568 89.3287 14.8149 89.3287 14.1327C89.3287 13.5724 89.4877 13.0608 89.8057 12.5979C90.1361 12.135 90.6011 11.7696 91.2007 11.5016C91.8125 11.2336 92.5281 11.0996 93.3481 11.0996C94.5592 11.0996 95.5259 11.4041 96.248 12.0132C96.9697 12.6101 97.3676 13.4201 97.4409 14.4433H94.9816C94.9448 14.0414 94.7735 13.7246 94.4677 13.4932C94.1739 13.2496 93.7764 13.1278 93.2745 13.1278C92.8096 13.1278 92.4486 13.213 92.1917 13.3836C91.947 13.5541 91.8245 13.7916 91.8245 14.0961C91.8245 14.4372 91.9958 14.6991 92.3384 14.8818C92.681 15.0524 93.2134 15.229 93.9354 15.4118C94.6694 15.5945 95.2751 15.7831 95.7525 15.9781C96.2295 16.1731 96.6394 16.4775 96.982 16.8916C97.3369 17.2938 97.5204 17.8295 97.5327 18.4997C97.5327 19.0844 97.3676 19.6082 97.0372 20.0709C96.7189 20.5339 96.2541 20.8992 95.6423 21.1672C95.0427 21.423 94.3391 21.551 93.5314 21.551Z" fill="black"/>
</svg>
