<svg width="112" height="30" viewBox="0 0 112 30" fill="none" xmlns="http://www.w3.org/2000/svg">
<path d="M13.7556 29.9965H3.93018L13.7556 15.6504H23.5811L13.7556 29.9965Z" fill="black"/>
<path d="M10.153 0H20.3059L10.153 15.6504H0L10.153 0Z" fill="black"/>
<path d="M44.542 13.2727C44.542 14.2145 44.3103 15.0972 43.847 15.9214C43.4009 16.7452 42.6888 17.4095 41.7109 17.9141C40.7499 18.4185 39.5317 18.6708 38.0561 18.6708H35.0446V25.4309H31.4414V7.82422H38.0561C39.4459 7.82422 40.6298 8.05966 41.6078 8.53052C42.586 9.00137 43.3151 9.64879 43.7957 10.4728C44.2933 11.2968 44.542 12.2301 44.542 13.2727ZM37.9015 15.8203C38.8967 15.8203 39.6345 15.6019 40.1152 15.1647C40.5955 14.7106 40.8357 14.0799 40.8357 13.2727C40.8357 11.5575 39.8577 10.6998 37.9015 10.6998H35.0446V15.8203H37.9015Z" fill="black"/>
<path d="M49.106 13.4855C49.5244 12.7367 50.0666 12.1496 50.7329 11.7241C51.4148 11.2987 52.1895 11.0859 53.0574 11.0859V14.8386H52.1972C51.1746 14.8386 50.3999 15.1023 49.873 15.6299C49.3617 16.1574 49.106 17.0763 49.106 18.3867V25.4321H45.8521V11.2902H49.106V13.4855Z" fill="black"/>
<path d="M60.4937 25.4321C59.2065 25.4321 58.0482 25.1396 57.0186 24.5545C55.989 23.9525 55.1764 23.108 54.5813 22.0211C54.0021 20.9345 53.7124 19.6804 53.7124 18.259C53.7124 16.8379 54.0101 15.5838 54.6055 14.4969C55.2168 13.4101 56.0453 12.5741 57.0911 11.9889C58.1369 11.3869 59.3032 11.0859 60.5904 11.0859C61.8772 11.0859 63.0436 11.3869 64.0893 11.9889C65.1351 12.5741 65.9557 13.4101 66.5511 14.4969C67.1624 15.5838 67.468 16.8379 67.468 18.259C67.468 19.6804 67.1541 20.9345 66.5269 22.0211C65.9153 23.108 65.0788 23.9525 64.0171 24.5545C62.9713 25.1396 61.7968 25.4321 60.4937 25.4321ZM60.4937 22.3724C61.105 22.3724 61.6762 22.2217 62.2071 21.9209C62.7541 21.6032 63.1886 21.1352 63.5101 20.5164C63.832 19.8976 63.9929 19.1452 63.9929 18.259C63.9929 16.9381 63.6552 15.9266 62.9793 15.2242C62.3197 14.5052 61.5073 14.1458 60.542 14.1458C59.5767 14.1458 58.7641 14.5052 58.1047 15.2242C57.461 15.9266 57.1394 16.9381 57.1394 18.259C57.1394 19.5799 57.4531 20.6 58.0806 21.319C58.724 22.0211 59.5284 22.3724 60.4937 22.3724Z" fill="black"/>
<path d="M72.9073 22.6624H76.6384V25.4321H69.4331V5.86914H72.9073V22.6624Z" fill="black"/>
<path d="M79.2585 9.96143C78.695 9.96143 78.2226 9.77012 77.8419 9.38751C77.4763 8.98826 77.2935 8.49752 77.2935 7.91529C77.2935 7.33305 77.4763 6.85063 77.8419 6.46802C78.2226 6.06877 78.695 5.86914 79.2585 5.86914C79.8223 5.86914 80.2867 6.06877 80.6523 6.46802C81.0333 6.85063 81.2236 7.33305 81.2236 7.91529C81.2236 8.49752 81.0333 8.98826 80.6523 9.38751C80.2867 9.77012 79.8223 9.96143 79.2585 9.96143ZM80.8351 11.6083V25.4321H77.6362V11.6083H80.8351Z" fill="black"/>
<path d="M90.8063 11.0859C92.4436 11.0859 93.767 11.622 94.7761 12.6942C95.785 13.7493 96.2896 15.2299 96.2896 17.1358V25.4321H92.8158V17.6209C92.8158 16.4976 92.543 15.6383 91.9972 15.0428C91.4512 14.4301 90.7069 14.1237 89.7641 14.1237C88.8047 14.1237 88.0437 14.4301 87.4813 15.0428C86.9355 15.6383 86.6627 16.4976 86.6627 17.6209V25.4321H83.189V11.2902H86.6627V13.0515C87.1258 12.4389 87.7131 11.9624 88.4243 11.622C89.152 11.2646 89.9459 11.0859 90.8063 11.0859Z" fill="black"/>
<path d="M111.355 17.9582C111.355 18.4597 111.321 18.9112 111.255 19.3125H101.144C101.227 20.3157 101.577 21.1015 102.193 21.67C102.809 22.2386 103.566 22.5229 104.465 22.5229C105.763 22.5229 106.686 21.9626 107.236 20.8423H111.005C110.606 22.1801 109.84 23.2835 108.708 24.1532C107.577 25.0057 106.187 25.4321 104.539 25.4321C103.208 25.4321 102.01 25.1396 100.945 24.5545C99.896 23.9525 99.0722 23.108 98.473 22.0211C97.8906 20.9345 97.5991 19.6804 97.5991 18.259C97.5991 16.8211 97.8906 15.5587 98.473 14.4718C99.0554 13.385 99.871 12.549 100.92 11.9638C101.968 11.3785 103.175 11.0859 104.539 11.0859C105.854 11.0859 107.028 11.3702 108.06 11.9387C109.108 12.5072 109.915 13.3181 110.481 14.3716C111.064 15.4082 111.355 16.6039 111.355 17.9582ZM107.735 16.9549C107.718 16.0519 107.394 15.3329 106.761 14.798C106.129 14.246 105.355 13.9703 104.44 13.9703C103.574 13.9703 102.842 14.2378 102.243 14.7729C101.66 15.2912 101.302 16.0185 101.169 16.9549H107.735Z" fill="black"/>
</svg>
