<svg width="115" height="30" viewBox="0 0 115 30" fill="none" xmlns="http://www.w3.org/2000/svg">
<path d="M42.6737 24.286C40.8534 24.286 39.263 23.8743 37.9026 23.0506C36.5419 22.2269 35.4847 21.083 34.7311 19.6185C33.9771 18.136 33.6001 16.4154 33.6001 14.457C33.6001 12.4801 33.9861 10.7413 34.7586 9.24039C35.5491 7.72117 36.6616 6.54059 38.0955 5.69864C39.5481 4.83836 41.2673 4.4082 43.2529 4.4082C45.5145 4.4082 47.3897 4.94818 48.8792 6.02809C50.3684 7.10801 51.3337 8.59975 51.7751 10.5033H47.8311C47.537 9.60647 47.0037 8.91094 46.2316 8.41671C45.4592 7.90421 44.4664 7.64798 43.2529 7.64798C41.3223 7.64798 39.8332 8.26114 38.785 9.4875C37.7369 10.6955 37.213 12.3612 37.213 14.4844C37.213 16.6076 37.7279 18.2549 38.7575 19.4265C39.8057 20.5795 41.2214 21.1561 43.0047 21.1561C44.7515 21.1561 46.0659 20.6893 46.9487 19.7557C47.8495 18.8041 48.3919 17.5594 48.5757 16.0219H43.6943V13.3862H52.1336V23.9565H48.8792L48.6032 21.4305C47.9783 22.3458 47.1969 23.0506 46.2591 23.5448C45.3213 24.0389 44.1263 24.286 42.6737 24.286Z" fill="black"/>
<path d="M54.104 23.9556V4.1875H57.6341V23.9556H54.104Z" fill="black"/>
<path d="M66.426 24.2848C65.1022 24.2848 63.9072 23.9829 62.8406 23.3789C61.7928 22.7749 60.9563 21.9418 60.3312 20.8804C59.7244 19.8002 59.4209 18.5558 59.4209 17.1463C59.4209 15.7369 59.7335 14.5014 60.3587 13.4398C60.9838 12.3599 61.8203 11.5179 62.8684 10.9138C63.9347 10.3098 65.1297 10.0078 66.4535 10.0078C67.7589 10.0078 68.9358 10.3098 69.9839 10.9138C71.0502 11.5179 71.8866 12.3599 72.4934 13.4398C73.1186 14.5014 73.4312 15.7369 73.4312 17.1463C73.4312 18.5558 73.1186 19.8002 72.4934 20.8804C71.8866 21.9418 71.0502 22.7749 69.9839 23.3789C68.9174 23.9829 67.7314 24.2848 66.426 24.2848ZM66.426 21.2373C67.3453 21.2373 68.1453 20.8987 68.8255 20.2213C69.5057 19.5258 69.8457 18.5007 69.8457 17.1463C69.8457 15.7918 69.5057 14.776 68.8255 14.0987C68.1453 13.4032 67.3544 13.0554 66.4535 13.0554C65.5161 13.0554 64.7071 13.4032 64.0266 14.0987C63.3648 14.776 63.0338 15.7918 63.0338 17.1463C63.0338 18.5007 63.3648 19.5258 64.0266 20.2213C64.7071 20.8987 65.5067 21.2373 66.426 21.2373Z" fill="black"/>
<path d="M80.862 24.2848C79.6485 24.2848 78.5823 24.0925 77.6629 23.7082C76.7436 23.3055 76.0081 22.7565 75.4567 22.061C74.9049 21.3652 74.5739 20.5598 74.4639 19.6446H78.0215C78.1318 20.1755 78.426 20.6333 78.9039 21.0176C79.4003 21.3836 80.0349 21.5665 80.807 21.5665C81.5791 21.5665 82.1398 21.4113 82.4893 21.1001C82.8569 20.7889 83.0411 20.4319 83.0411 20.0293C83.0411 19.4433 82.7835 19.0499 82.2686 18.8486C81.7538 18.6289 81.0367 18.4185 80.1174 18.2172C79.5291 18.089 78.9314 17.9334 78.3247 17.7504C77.7179 17.5673 77.1571 17.3385 76.6426 17.0639C76.1459 16.7711 75.7414 16.405 75.4291 15.9657C75.1166 15.5081 74.9603 14.9499 74.9603 14.2909C74.9603 13.0828 75.4382 12.067 76.3941 11.2433C77.3688 10.4196 78.7292 10.0078 80.4759 10.0078C82.0939 10.0078 83.3812 10.383 84.337 11.1335C85.3117 11.8839 85.8906 12.9181 86.0747 14.236H82.7375C82.5353 13.2293 81.7722 12.7259 80.4484 12.7259C79.7867 12.7259 79.2718 12.8541 78.9039 13.1103C78.5547 13.3666 78.38 13.6869 78.38 14.0713C78.38 14.474 78.6466 14.7943 79.1799 15.0322C79.7129 15.2702 80.4209 15.4898 81.3034 15.6911C82.2596 15.9108 83.1329 16.1579 83.9235 16.4325C84.7325 16.6887 85.3758 17.0823 85.8541 17.6131C86.332 18.1257 86.5711 18.867 86.5711 19.8369C86.5896 20.679 86.3689 21.4386 85.9091 22.1158C85.4496 22.7929 84.7875 23.3238 83.9235 23.7082C83.0592 24.0925 82.0389 24.2848 80.862 24.2848Z" fill="black"/>
<path d="M93.9731 24.2848C92.7596 24.2848 91.6934 24.0925 90.7741 23.7082C89.8547 23.3055 89.1192 22.7565 88.5675 22.061C88.0161 21.3652 87.6851 20.5598 87.5747 19.6446H91.1326C91.243 20.1755 91.5371 20.6333 92.015 21.0176C92.5114 21.3836 93.1457 21.5665 93.9181 21.5665C94.6902 21.5665 95.251 21.4113 95.6004 21.1001C95.968 20.7889 96.1518 20.4319 96.1518 20.0293C96.1518 19.4433 95.8946 19.0499 95.3798 18.8486C94.8649 18.6289 94.1478 18.4185 93.2285 18.2172C92.6402 18.089 92.0425 17.9334 91.4358 17.7504C90.8291 17.5673 90.2683 17.3385 89.7534 17.0639C89.2571 16.7711 88.8526 16.405 88.54 15.9657C88.2274 15.5081 88.0711 14.9499 88.0711 14.2909C88.0711 13.0828 88.5494 12.067 89.5053 11.2433C90.4799 10.4196 91.8403 10.0078 93.5871 10.0078C95.205 10.0078 96.4919 10.383 97.4482 11.1335C98.4225 11.8839 99.0017 12.9181 99.1855 14.236H95.8486C95.6464 13.2293 94.8834 12.7259 93.5596 12.7259C92.8975 12.7259 92.3826 12.8541 92.015 13.1103C91.6656 13.3666 91.4911 13.6869 91.4911 14.0713C91.4911 14.474 91.7575 14.7943 92.2907 15.0322C92.824 15.2702 93.5317 15.4898 94.4145 15.6911C95.3704 15.9108 96.2437 16.1579 97.0343 16.4325C97.8436 16.6887 98.4869 17.0823 98.9648 17.6131C99.4431 18.1257 99.6819 18.867 99.6819 19.8369C99.7004 20.679 99.4797 21.4386 99.0202 22.1158C98.5604 22.7929 97.8986 23.3238 97.0343 23.7082C96.1703 24.0925 95.15 24.2848 93.9731 24.2848Z" fill="black"/>
<path d="M102.413 29.9963L105.584 23.05H104.757L99.4341 10.3379H103.268L107.101 19.92L111.1 10.3379H114.851L106.164 29.9963H102.413Z" fill="black"/>
<path d="M7.61579 21.7568L21.5302 7.90482L19.2421 5.62695L5.32764 19.479L7.61579 21.7568Z" fill="black"/>
<path d="M13.1169 7.9051L7.61579 13.3822L5.32764 11.1041L10.8287 5.62695L13.1169 7.9051Z" fill="black"/>
<path d="M16.0294 21.7571L21.5304 16.2801L19.2423 14.002L13.7412 19.4789L16.0294 21.7571Z" fill="black"/>
<path fill-rule="evenodd" clip-rule="evenodd" d="M0 27.0601V0H27.1818V27.0601H0ZM3.23592 3.22144H23.9459V23.8386H3.23592V3.22144Z" fill="black"/>
</svg>
