<svg width="134" height="32" viewBox="0 0 134 32" fill="none" xmlns="http://www.w3.org/2000/svg">
<path fill-rule="evenodd" clip-rule="evenodd" d="M23.619 0H0V15.2381H23.619C27.8269 15.2381 31.2381 11.8269 31.2381 7.61905C31.2381 3.41116 27.8269 0 23.619 0ZM129.814 28V4.47998H133.67V28H129.814ZM70.7824 8.09598V4.55998H74.6384V8.09598H70.7824ZM70.7824 28V10.72H74.6384V28H70.7824ZM37.4937 4.95998V28H47.5577C49.0723 28 50.3417 27.712 51.3657 27.136C52.4003 26.56 53.179 25.76 53.7017 24.736C54.2243 23.712 54.4857 22.5173 54.4857 21.152C54.4857 19.8186 54.107 18.6293 53.3497 17.584C52.7985 16.8124 52.0556 16.2355 51.1208 15.8532C51.667 15.5246 52.1273 15.0829 52.5017 14.528C53.1097 13.6426 53.4137 12.5653 53.4137 11.296C53.4137 10.2613 53.1683 9.25865 52.6777 8.28798C52.1977 7.31731 51.4563 6.52265 50.4537 5.90398C49.4617 5.27465 48.187 4.95998 46.6297 4.95998H37.4937ZM47.0777 24.368H41.3977V17.76H47.1897C47.9043 17.76 48.5177 17.9093 49.0297 18.208C49.5417 18.496 49.931 18.8853 50.1977 19.376C50.4643 19.8666 50.5977 20.4213 50.5977 21.04C50.5977 21.7226 50.443 22.3146 50.1337 22.816C49.835 23.3066 49.419 23.6906 48.8857 23.968C48.3523 24.2346 47.7497 24.368 47.0777 24.368ZM46.5817 14.16H41.3977V8.55998H46.5817C47.499 8.55998 48.2137 8.82665 48.7257 9.35998C49.2377 9.89331 49.4937 10.56 49.4937 11.36C49.4937 11.968 49.3657 12.48 49.1097 12.896C48.8537 13.312 48.507 13.6266 48.0697 13.84C47.6323 14.0533 47.1363 14.16 46.5817 14.16ZM57.6812 10.72V28H61.5532V19.216C61.5532 18.5546 61.6332 17.9413 61.7932 17.376C61.9532 16.8 62.1985 16.288 62.5292 15.84C62.8705 15.392 63.3078 15.024 63.8412 14.736C64.3745 14.416 64.9718 14.2293 65.6332 14.176C66.3052 14.1226 66.8972 14.1706 67.4092 14.32V10.72C66.8972 10.6346 66.3692 10.6133 65.8251 10.656C65.2812 10.688 64.7478 10.7893 64.2252 10.96C63.7132 11.12 63.2438 11.344 62.8172 11.632C62.3158 11.9413 61.8838 12.336 61.5212 12.816C61.3632 13.0266 61.2192 13.248 61.0892 13.48V10.72H57.6812ZM80.9032 27.04C82.2365 28 83.9698 28.48 86.1031 28.48C88.3325 28.48 90.0765 27.984 91.3352 26.992C92.6045 26 93.2392 24.6346 93.2392 22.896C93.2392 22 93.0525 21.2373 92.6792 20.608C92.3165 19.9786 91.7191 19.44 90.8871 18.992C90.0658 18.5333 88.9672 18.128 87.5912 17.776C86.2472 17.4346 85.2338 17.1466 84.5511 16.912C83.8792 16.6773 83.4312 16.4426 83.2072 16.208C82.9831 15.9733 82.8712 15.6906 82.8712 15.36C82.8712 14.7733 83.1485 14.32 83.7032 14C84.2578 13.6693 84.9885 13.5306 85.8952 13.584C86.8445 13.6373 87.6018 13.8773 88.1672 14.304C88.7431 14.7306 89.0792 15.312 89.1752 16.048L93.1112 15.344C92.9618 14.3093 92.5672 13.408 91.9272 12.64C91.2871 11.872 90.4445 11.28 89.3992 10.864C88.3645 10.448 87.1751 10.24 85.8311 10.24C84.4551 10.24 83.2605 10.4586 82.2471 10.896C81.2338 11.3226 80.4445 11.936 79.8792 12.736C79.3138 13.536 79.0312 14.4746 79.0312 15.552C79.0312 16.416 79.2178 17.152 79.5912 17.76C79.9645 18.368 80.5778 18.896 81.4312 19.344C82.2845 19.7813 83.4365 20.192 84.8871 20.576C86.1885 20.9173 87.1538 21.2 87.7832 21.424C88.4125 21.648 88.8178 21.8826 88.9991 22.128C89.1911 22.3626 89.2872 22.6773 89.2872 23.072C89.2872 23.712 89.0312 24.2186 88.5191 24.592C88.0178 24.9546 87.3031 25.136 86.3752 25.136C85.3192 25.136 84.4445 24.8906 83.7512 24.4C83.0578 23.9093 82.6098 23.2373 82.4072 22.384L78.4711 22.992C78.7591 24.7306 79.5698 26.08 80.9032 27.04ZM106.872 28C105.73 28.2133 104.61 28.304 103.512 28.272C102.424 28.2506 101.448 28.0533 100.584 27.68C99.7197 27.296 99.0637 26.6933 98.6156 25.872C98.221 25.1253 98.013 24.3626 97.9917 23.584C97.9703 22.8053 97.9597 21.9253 97.9597 20.944V13.744H94.8237V10.72H97.9597V5.91998H101.8V10.72H106.872V13.744H101.8V20.72C101.8 21.4133 101.805 22.0213 101.816 22.544C101.837 23.0666 101.949 23.4933 102.152 23.824C102.536 24.464 103.149 24.8213 103.992 24.896C104.834 24.9706 105.794 24.928 106.872 24.768V28ZM112.816 27.312C114.107 28.0906 115.616 28.48 117.344 28.48C119.072 28.48 120.582 28.096 121.872 27.328C123.163 26.5493 124.166 25.4773 124.88 24.112C125.606 22.736 125.968 21.152 125.968 19.36C125.968 17.5786 125.611 16.0053 124.896 14.64C124.182 13.264 123.179 12.1866 121.888 11.408C120.598 10.6293 119.083 10.24 117.344 10.24C115.648 10.24 114.155 10.624 112.864 11.392C111.574 12.16 110.566 13.2266 109.84 14.592C109.115 15.9573 108.752 17.5466 108.752 19.36C108.752 21.1413 109.104 22.72 109.808 24.096C110.523 25.4613 111.526 26.5333 112.816 27.312ZM120.768 23.328C120.022 24.352 118.88 24.864 117.344 24.864C115.862 24.864 114.736 24.368 113.968 23.376C113.211 22.3733 112.832 21.0346 112.832 19.36C112.832 18.272 112.992 17.3173 113.312 16.496C113.632 15.664 114.123 15.0186 114.784 14.56C115.456 14.0906 116.31 13.856 117.344 13.856C118.859 13.856 119.995 14.3573 120.752 15.36C121.51 16.352 121.888 17.6853 121.888 19.36C121.888 20.9813 121.515 22.304 120.768 23.328ZM31.2381 24.381C31.2381 28.5889 27.8269 32 23.619 32L0 32V16.7619H23.6048L23.619 16.7619C27.8269 16.7619 31.2381 20.1731 31.2381 24.381Z" fill="url(#paint0_linear_1031_1036)"/>
<defs>
<linearGradient id="paint0_linear_1031_1036" x1="9.86087" y1="19.0968" x2="38.1648" y2="73.335" gradientUnits="userSpaceOnUse">
<stop stop-color="#C1CBF6"/>
<stop offset="0.963542" stop-color="#E7D4FA"/>
<stop offset="1" stop-color="#E9D4FA"/>
<stop offset="1" stop-color="#E9D4FA"/>
</linearGradient>
</defs>
</svg>
