<svg width="48" height="49" viewBox="0 0 48 49" fill="none" xmlns="http://www.w3.org/2000/svg">
<circle cx="24" cy="24.7178" r="24" fill="#1649FF"/>
<path d="M28.8552 14.9326H22.2734C21.2647 14.9333 20.2876 15.285 19.5098 15.9273C18.7321 16.5696 18.202 17.4625 18.0106 18.4529C17.8192 19.4433 17.9783 20.4694 18.4608 21.3553C18.9432 22.2411 19.7188 22.9316 20.6546 23.3081L27.3369 25.979C28.2747 26.3542 29.0526 27.0445 29.5366 27.9311C30.0206 28.8178 30.1806 29.8453 29.989 30.8372C29.7974 31.829 29.2662 32.723 28.4867 33.3655C27.7072 34.0081 26.7282 34.3589 25.7181 34.3577H19.1427" stroke="white" stroke-width="5" stroke-linecap="round" stroke-linejoin="round"/>
<path d="M24.002 14.9458V11.4536" stroke="white" stroke-width="5" stroke-linecap="round" stroke-linejoin="round"/>
<path d="M24.002 37.3985V34.3706" stroke="white" stroke-width="5" stroke-linecap="round" stroke-linejoin="round"/>
</svg>
