<svg width="48" height="49" viewBox="0 0 48 49" fill="none" xmlns="http://www.w3.org/2000/svg">
<circle cx="24" cy="24.9761" r="24" fill="#1649FF"/>
<path d="M27.8902 13.4236C27.3462 12.8795 27.3462 11.9975 27.8902 11.4534C28.4342 10.9094 29.3163 10.9094 29.8603 11.4534L34.4476 16.0407C35.5357 17.1288 35.5357 18.8929 34.4476 19.981L29.8603 24.5683C29.3163 25.1123 28.4342 25.1123 27.8902 24.5683C27.3462 24.0242 27.3462 23.1422 27.8902 22.5981L31.0844 19.4039L14.2478 19.4039C13.4785 19.4039 12.8547 18.7802 12.8547 18.0109C12.8547 17.2415 13.4785 16.6178 14.2478 16.6178L31.0844 16.6178L27.8902 13.4236Z" fill="white"/>
<path d="M33.7514 33.3346C34.5208 33.3346 35.1445 32.7109 35.1445 31.9415C35.1445 31.1721 34.5208 30.5484 33.7514 30.5484L16.9149 30.5484L20.1091 27.3542C20.6531 26.8102 20.6531 25.9281 20.1091 25.3841C19.565 24.8401 18.683 24.8401 18.139 25.3841L13.5517 29.9714C12.4636 31.0595 12.4636 32.8236 13.5517 33.9116L18.1389 38.4989C18.683 39.043 19.565 39.043 20.1091 38.4989C20.6531 37.9549 20.6531 37.0728 20.1091 36.5288L16.9149 33.3346L33.7514 33.3346Z" fill="white"/>
</svg>
