<svg width="64" height="64" viewBox="0 0 64 64" fill="none" xmlns="http://www.w3.org/2000/svg">
<circle cx="32" cy="32" r="32" fill="#3C4A6C"/>
<path d="M22.1465 15.6616H15.6113V28.732H22.1465V15.6616Z" fill="#1649FF"/>
<path d="M35.3164 15.6616H28.7812V28.732H35.3164V15.6616Z" fill="#1649FF"/>
<path d="M48.3868 15.6616H41.8516V28.732H48.3868V15.6616Z" fill="#1649FF"/>
<path d="M15.6113 22.1973V35.2677H22.1465V41.8029H41.8511V35.2677H48.3863V22.1973H15.6113Z" fill="#8EA0CB"/>
<path d="M35.3164 41.8022H28.7812V48.3374H35.3164V41.8022Z" fill="#1649FF"/>
<path d="M22.1465 41.8022H15.6113V48.3374H22.1465V41.8022Z" fill="#1649FF"/>
<path d="M48.3868 41.8022H41.8516V48.3374H48.3868V41.8022Z" fill="#1649FF"/>
<path d="M28.6817 28.7319H22.1465V35.2671H28.6817V28.7319Z" fill="white"/>
<path d="M41.8516 28.7319H35.3164V35.2671H41.8516V28.7319Z" fill="white"/>
</svg>
