<svg width="130" height="20" viewBox="0 0 130 20" fill="none" xmlns="http://www.w3.org/2000/svg">
<path d="M6.98212 3.40909C4.91965 3.40909 3.88841 4.09091 3.88841 5.45455C3.88841 6.06061 4.14386 6.52462 4.65474 6.84659C5.16563 7.16856 6.3577 7.63258 8.23095 8.23864C10.1231 8.8447 11.4476 9.53598 12.2045 10.3125C12.9614 11.0701 13.3398 12.2443 13.3398 13.8352C13.3398 15.8617 12.7249 17.3958 11.4949 18.4375C10.265 19.4792 8.65669 20 6.66991 20C5.19401 20 3.38699 19.7727 1.24883 19.3182L0.227061 19.1193L0.624417 16.0795C3.15993 16.4205 5.0994 16.5909 6.44285 16.5909C8.44855 16.5909 9.4514 15.7576 9.4514 14.0909C9.4514 13.4848 9.21488 13.0114 8.74184 12.6705C8.28772 12.3295 7.37001 11.9602 5.98873 11.5625C3.79381 10.9375 2.24222 10.1989 1.33398 9.34659C0.444661 8.47538 0 7.27273 0 5.73864C0 3.80682 0.586573 2.36742 1.75972 1.42045C2.93287 0.473484 4.54121 0 6.58476 0C7.98497 0 9.76361 0.189393 11.9207 0.568181L12.9425 0.767045L12.6303 3.86364C9.96229 3.56061 8.07958 3.40909 6.98212 3.40909Z" fill="black"/>
<path d="M27.5863 19.6591V11.6477H20.4055V19.6591H16.4887V0.340909H20.4055V8.23864H27.5863V0.340909H31.5031V19.6591H27.5863Z" fill="black"/>
<path d="M52.7708 19.6591V0.340909H59.3839L64.0387 16.25H64.3225V0.340909H68.2393V19.6591H61.7964L56.9714 3.75H56.6876V19.6591H52.7708Z" fill="black"/>
<path d="M80.4824 12.7273V9.31818H86.1021V19.6591C83.035 19.6591 81.2014 19.6591 79.5174 19.6591C76.5088 19.6591 74.4369 19.1951 73.3016 17.5852C72.1852 15.9754 71.627 13.4186 71.627 9.91477C71.627 6.41099 72.2136 3.88258 73.3867 2.32955C74.5599 0.776514 76.5561 0 79.3755 0C81.1352 0 83.0368 0.198863 85.0804 0.596591L86.1021 0.795454L85.9886 3.83523C83.718 3.58901 81.8542 3.46591 80.3972 3.46591C78.9592 3.46591 77.9469 3.63636 77.3603 3.97727C76.7737 4.31818 76.3385 4.95265 76.0547 5.88068C75.7898 6.78977 75.6573 8.36174 75.6573 10.5966C75.6573 12.8125 75.9317 14.3655 76.4804 15.2557C77.0292 16.1458 78.1645 16.5909 79.8863 16.5909L82.2421 16.4773V12.7273H80.4824Z" fill="black"/>
<path d="M100.899 19.6591V11.6477H93.718V19.6591H89.8012V0.340909H93.718V8.23864H100.899V0.340909H104.816V19.6591H100.899Z" fill="black"/>
<path d="M126.083 19.6591V0.340909H130V19.6591H126.083Z" fill="black"/>
<path d="M38.4216 0.340892L34.0791 19.6591H37.9959L41.4585 3.57953H42.8209L46.2836 19.6591H50.2004L45.8578 0.340892H38.4216Z" fill="black"/>
<path d="M111.65 0.340892L107.307 19.6591H111.224L114.687 3.57953H116.049L119.512 19.6591H123.428L119.086 0.340892H111.65Z" fill="black"/>
</svg>
