<svg width="153" height="31" viewBox="0 0 153 31" fill="none" xmlns="http://www.w3.org/2000/svg">
<path d="M18.5979 4.12415H7.97021V0.803345H18.5979C22.2665 0.803345 25.2403 3.77689 25.2403 7.44496V18.0715H21.9191V7.44496C21.9191 5.61094 20.4322 4.12415 18.5979 4.12415Z" fill="#151315"/>
<path d="M6.64238 22.7202H17.27V26.041H6.64238C2.97389 26.041 0 23.0676 0 19.3994V8.77283H3.32119V19.3994C3.32119 21.2335 4.80812 22.7202 6.64238 22.7202Z" fill="#151315"/>
<path fill-rule="evenodd" clip-rule="evenodd" d="M19.2617 13.4228C19.2617 17.0909 16.2879 20.0645 12.6194 20.0645C8.95095 20.0645 5.97705 17.0909 5.97705 13.4228C5.97705 9.7547 8.95095 6.78113 12.6194 6.78113C16.2879 6.78113 19.2617 9.7547 19.2617 13.4228ZM15.9406 13.4228C15.9406 15.2569 14.4537 16.7436 12.6194 16.7436C10.7852 16.7436 9.29824 15.2569 9.29824 13.4228C9.29824 11.5888 10.7852 10.102 12.6194 10.102C14.4537 10.102 15.9406 11.5888 15.9406 13.4228Z" fill="#151315"/>
<path d="M39.4132 23.9257C38.1554 23.9257 37.0232 23.7101 36.0166 23.2788C35.0103 22.8295 34.2195 22.2008 33.6446 21.3922C33.0694 20.5836 32.7817 19.6402 32.7817 18.5619H36.0707C36.1425 19.3705 36.457 20.0353 37.0143 20.5564C37.5892 21.0777 38.3889 21.3381 39.4132 21.3381C40.4736 21.3381 41.3003 21.0867 41.8934 20.5836C42.4863 20.0622 42.7829 19.3974 42.7829 18.5888C42.7829 17.9598 42.5942 17.4478 42.2169 17.0525C41.8572 16.6572 41.3993 16.3517 40.842 16.1361C40.3029 15.9204 39.548 15.6869 38.5776 15.4353C37.3557 15.1119 36.3583 14.7884 35.5855 14.465C34.8306 14.1236 34.1836 13.6024 33.6446 12.9016C33.1052 12.2008 32.8359 11.2664 32.8359 10.0984C32.8359 9.0203 33.1052 8.07689 33.6446 7.26831C34.1836 6.45969 34.9385 5.83973 35.909 5.40849C36.8794 4.97722 38.0027 4.7616 39.2787 4.7616C41.0937 4.7616 42.5763 5.2198 43.7264 6.13625C44.8945 7.03469 45.5415 8.27458 45.6673 9.85585H42.2707C42.2169 9.17303 41.8935 8.58903 41.3003 8.10386C40.7071 7.61869 39.9256 7.3761 38.9552 7.3761C38.0744 7.3761 37.3557 7.60072 36.7984 8.04996C36.2414 8.4992 35.9628 9.14606 35.9628 9.99064C35.9628 10.5656 36.1335 11.0418 36.4749 11.4192C36.8343 11.7786 37.2836 12.0661 37.823 12.2817C38.362 12.4973 39.0987 12.7309 40.0332 12.9825C41.2734 13.3239 42.2797 13.6653 43.0526 14.0067C43.8433 14.3481 44.5082 14.8782 45.0473 15.597C45.6046 16.2978 45.8829 17.2412 45.8829 18.4271C45.8829 19.3795 45.6225 20.2781 45.1014 21.1226C44.5979 21.967 43.8523 22.6498 42.8639 23.1712C41.8934 23.6743 40.7433 23.9257 39.4132 23.9257Z" fill="#151315"/>
<path d="M55.6551 8.6438C56.8235 8.6438 57.8657 8.88638 58.7823 9.37155C59.7166 9.85671 60.4446 10.5755 60.9657 11.5278C61.4868 12.4802 61.7475 13.6302 61.7475 14.9779V23.7378H58.7013V15.4361C58.7013 14.1064 58.3688 13.0912 57.7039 12.3904C57.039 11.6716 56.1313 11.3122 54.9812 11.3122C53.8311 11.3122 52.9144 11.6716 52.2316 12.3904C51.5667 13.0912 51.2342 14.1064 51.2342 15.4361V23.7378H48.1611V8.88638H51.2342V10.5845C51.7374 9.97351 52.3754 9.49734 53.1482 9.15593C53.939 8.81452 54.7746 8.6438 55.6551 8.6438Z" fill="#151315"/>
<path d="M63.2954 16.2447C63.2954 14.7533 63.601 13.4326 64.2121 12.2826C64.8411 11.1325 65.6857 10.2431 66.7458 9.61413C67.8242 8.96724 69.0102 8.6438 70.3041 8.6438C71.4725 8.6438 72.4878 8.87742 73.3503 9.34462C74.2311 9.79382 74.9319 10.3599 75.453 11.0427V8.88638H78.553V23.7378H75.453V21.5275C74.9319 22.2285 74.2218 22.8123 73.3234 23.2796C72.4247 23.7468 71.4005 23.9806 70.2503 23.9806C68.9743 23.9806 67.8063 23.6571 66.7458 23.0103C65.6857 22.3451 64.8411 21.4289 64.2121 20.261C63.601 19.0748 63.2954 17.7362 63.2954 16.2447ZM75.453 16.2987C75.453 15.2744 75.2374 14.385 74.806 13.6302C74.3928 12.8756 73.8445 12.3005 73.1617 11.9052C72.4788 11.5099 71.7419 11.3122 70.9511 11.3122C70.1603 11.3122 69.4237 11.5099 68.7408 11.9052C68.0577 12.2826 67.5007 12.8486 67.0693 13.6033C66.6561 14.34 66.4495 15.2205 66.4495 16.2447C66.4495 17.269 66.6561 18.1675 67.0693 18.94C67.5007 19.7127 68.0577 20.3058 68.7408 20.7189C69.4416 21.1144 70.1786 21.312 70.9511 21.312C71.7419 21.312 72.4788 21.1144 73.1617 20.7189C73.8445 20.3237 74.3928 19.7486 74.806 18.9941C75.2374 18.2213 75.453 17.3229 75.453 16.2987Z" fill="#151315"/>
<path d="M84.3153 11.0696C84.8364 10.3868 85.5464 9.81179 86.4448 9.34462C87.3435 8.87742 88.3588 8.6438 89.491 8.6438C90.785 8.6438 91.962 8.96724 93.0225 9.61413C94.1009 10.2431 94.9454 11.1325 95.5565 12.2826C96.1673 13.4326 96.4728 14.7533 96.4728 16.2447C96.4728 17.7362 96.1673 19.0748 95.5565 20.2609C94.9454 21.4289 94.1009 22.3451 93.0225 23.0102C91.962 23.6571 90.785 23.9806 89.491 23.9806C88.3588 23.9806 87.3525 23.7557 86.4721 23.3064C85.5913 22.8395 84.8726 22.2644 84.3153 21.5816V30.7998H81.2422V8.88638H84.3153V11.0696ZM93.3459 16.2447C93.3459 15.2205 93.1304 14.34 92.699 13.6033C92.2855 12.8486 91.7285 12.2826 91.0277 11.9052C90.3446 11.5099 89.6079 11.3122 88.8172 11.3122C88.0443 11.3122 87.3077 11.5099 86.6066 11.9052C85.9237 12.3005 85.3668 12.8755 84.9354 13.6302C84.5222 14.3849 84.3153 15.2744 84.3153 16.2986C84.3153 17.3229 84.5222 18.2213 84.9354 18.9941C85.3668 19.7486 85.9237 20.3237 86.6066 20.7189C87.3077 21.1144 88.0443 21.312 88.8172 21.312C89.6079 21.312 90.3446 21.1144 91.0277 20.7189C91.7285 20.3058 92.2855 19.7127 92.699 18.9399C93.1304 18.1675 93.3459 17.269 93.3459 16.2447Z" fill="#151315"/>
<path d="M104.337 23.9257C103.079 23.9257 101.947 23.7101 100.94 23.2788C99.9336 22.8295 99.1428 22.2008 98.5679 21.3922C97.9927 20.5836 97.7051 19.6402 97.7051 18.5619H100.994C101.066 19.3705 101.38 20.0353 101.937 20.5564C102.513 21.0777 103.312 21.3381 104.337 21.3381C105.397 21.3381 106.224 21.0867 106.817 20.5836C107.41 20.0622 107.706 19.3974 107.706 18.5888C107.706 17.9598 107.518 17.4478 107.14 17.0525C106.781 16.6572 106.323 16.3517 105.765 16.1361C105.226 15.9204 104.471 15.6869 103.501 15.4353C102.279 15.1119 101.281 14.7884 100.509 14.465C99.7539 14.1236 99.107 13.6024 98.5679 12.9016C98.0286 12.2008 97.7592 11.2664 97.7592 10.0984C97.7592 9.0203 98.0286 8.07689 98.5679 7.26831C99.107 6.45969 99.8619 5.83973 100.832 5.40849C101.803 4.97722 102.926 4.7616 104.202 4.7616C106.017 4.7616 107.5 5.2198 108.65 6.13625C109.818 7.03469 110.465 8.27458 110.591 9.85585H107.194C107.14 9.17303 106.817 8.58903 106.224 8.10386C105.63 7.61869 104.849 7.3761 103.878 7.3761C102.998 7.3761 102.279 7.60072 101.722 8.04996C101.165 8.4992 100.886 9.14606 100.886 9.99064C100.886 10.5656 101.057 11.0418 101.398 11.4192C101.758 11.7786 102.207 12.0661 102.746 12.2817C103.285 12.4973 104.022 12.7309 104.957 12.9825C106.197 13.3239 107.203 13.6653 107.976 14.0067C108.767 14.3481 109.432 14.8782 109.971 15.597C110.528 16.2978 110.806 17.2412 110.806 18.4271C110.806 19.3795 110.546 20.2781 110.024 21.1226C109.521 21.967 108.776 22.6498 107.787 23.1712C106.817 23.6743 105.667 23.9257 104.337 23.9257Z" fill="#151315"/>
<path d="M120.766 8.64376C121.898 8.64376 122.905 8.88634 123.785 9.37151C124.684 9.85668 125.385 10.5755 125.888 11.5278C126.409 12.4802 126.67 13.6302 126.67 14.9779V23.7378H123.624V15.4361C123.624 14.1064 123.291 13.0911 122.626 12.3903C121.961 11.6716 121.054 11.3122 119.904 11.3122C118.753 11.3122 117.837 11.6716 117.154 12.3903C116.489 13.0911 116.157 14.1064 116.157 15.4361V23.7378H113.083V3.79211H116.157V10.6114C116.678 9.98247 117.334 9.4973 118.124 9.15589C118.933 8.81448 119.814 8.64376 120.766 8.64376Z" fill="#151315"/>
<path d="M135.686 23.9806C134.284 23.9806 133.017 23.6661 131.885 23.0372C130.753 22.3903 129.863 21.4917 129.216 20.3417C128.569 19.1737 128.246 17.8262 128.246 16.2987C128.246 14.7893 128.578 13.4505 129.243 12.2826C129.908 11.1146 130.816 10.2161 131.966 9.5872C133.116 8.95828 134.401 8.6438 135.821 8.6438C137.24 8.6438 138.525 8.95828 139.676 9.5872C140.826 10.2161 141.733 11.1146 142.398 12.2826C143.063 13.4505 143.396 14.7893 143.396 16.2987C143.396 17.8079 143.054 19.1468 142.371 20.3148C141.688 21.4827 140.754 22.3903 139.568 23.0372C138.4 23.6661 137.106 23.9806 135.686 23.9806ZM135.686 21.312C136.477 21.312 137.213 21.1234 137.896 20.7461C138.597 20.3686 139.163 19.8027 139.595 19.0479C140.026 18.2931 140.241 17.3768 140.241 16.2987C140.241 15.2205 140.035 14.3131 139.621 13.5763C139.208 12.8216 138.66 12.2556 137.977 11.8783C137.294 11.5009 136.557 11.3122 135.767 11.3122C134.976 11.3122 134.239 11.5009 133.556 11.8783C132.891 12.2556 132.361 12.8216 131.966 13.5763C131.57 14.3131 131.373 15.2205 131.373 16.2987C131.373 17.8979 131.777 19.1379 132.586 20.0182C133.412 20.8806 134.446 21.312 135.686 21.312Z" fill="#151315"/>
<path d="M148.671 11.3926V19.6136C148.671 20.1705 148.797 20.575 149.048 20.8264C149.318 21.0602 149.767 21.1767 150.396 21.1767H152.283V23.7374H149.857C148.473 23.7374 147.413 23.414 146.676 22.7671C145.939 22.1202 145.571 21.0692 145.571 19.6136V11.3926H143.819V8.88591H145.571V5.19324H148.671V8.88591H152.283V11.3926H148.671Z" fill="#151315"/>
</svg>
