<svg width="116" height="31" viewBox="0 0 116 31" fill="none" xmlns="http://www.w3.org/2000/svg">
<path d="M15.0053 0.803345L0 18.8012H13.5048L12.0042 30.7998L27.0095 12.8019H13.5048L15.0053 0.803345Z" fill="#151315"/>
<path d="M48.2539 13.3486V18.9005H40.2419V26.505H33.9468V3.96082H49.937V9.51274H40.2419V13.3486H48.2539Z" fill="#151315"/>
<path d="M58.7161 3.96082V26.505H52.9258V3.96082H58.7161Z" fill="#151315"/>
<path d="M68.2691 8.83984C69.1668 8.83984 70.042 9.04171 70.8948 9.44549C71.7703 9.82684 72.4882 10.3203 73.0493 10.926V9.34455H78.8397V26.5051H73.0493V23.6449C72.6231 24.587 71.9722 25.3833 71.097 26.0339C70.2218 26.6845 69.1668 27.0096 67.9326 27.0096C66.6533 27.0096 65.4524 26.6845 64.3304 26.0339C63.2084 25.3833 62.288 24.3852 61.5701 23.0392C60.8744 21.6711 60.5264 19.9551 60.5264 17.8912C60.5264 15.962 60.8744 14.3245 61.5701 12.9785C62.288 11.6326 63.2309 10.612 64.3977 9.91656C65.5873 9.19874 66.8776 8.83984 68.2691 8.83984ZM69.4811 14.4927C68.6508 14.4927 67.955 14.8292 67.3939 15.5021C66.8552 16.1751 66.5859 16.9714 66.5859 17.8912C66.5859 18.8109 66.8664 19.5848 67.4275 20.2129C67.9887 20.8411 68.7293 21.155 69.6494 21.155C70.1429 21.155 70.648 21.0317 71.1643 20.785C71.6803 20.5156 72.118 20.1232 72.477 19.6072C72.8587 19.0687 73.0493 18.3847 73.0493 17.5547V15.9059C72.5558 15.5021 71.9946 15.1657 71.3662 14.8965C70.7602 14.6273 70.1317 14.4927 69.4811 14.4927Z" fill="#151315"/>
<path d="M87.8217 8.83984C88.944 8.83984 89.9762 9.00808 90.9187 9.34455C91.8837 9.6586 92.6579 10.096 93.2415 10.6568V15.1993C92.6579 14.8404 91.9958 14.5039 91.2555 14.1899C90.5149 13.8534 89.7182 13.6851 88.8651 13.6851C88.3267 13.6851 87.8441 13.7973 87.4179 14.0216C87.0137 14.2235 86.8118 14.5488 86.8118 14.9974C86.8118 15.3115 86.9352 15.547 87.182 15.704C87.4291 15.8611 87.9114 16.0293 88.6296 16.2087L89.6731 16.4779C92.6579 17.2406 94.1504 18.8445 94.1504 21.2896C94.1504 22.4113 93.8139 23.4095 93.1406 24.2843C92.4897 25.1367 91.6257 25.8097 90.5486 26.3033C89.4936 26.7742 88.3492 27.0096 87.1147 27.0096C85.8357 27.0096 84.6461 26.8303 83.5465 26.4715C82.4467 26.09 81.5042 25.6303 80.7187 25.0918V20.5829C81.5266 21.0765 82.4355 21.4914 83.4456 21.828C84.4778 22.1644 85.3979 22.3328 86.2058 22.3328C86.8567 22.3328 87.3281 22.2541 87.6198 22.0971C87.9338 21.9401 88.0909 21.6598 88.0909 21.2559C88.0909 20.942 87.9114 20.7062 87.5525 20.5493C87.1932 20.3699 86.6772 20.1681 86.0039 19.9435L84.2871 19.4054C83.0303 19.0239 82.1102 18.4295 81.5266 17.622C80.943 16.792 80.6514 15.7825 80.6514 14.5937C80.6514 13.4048 80.9654 12.3841 81.5939 11.5317C82.2223 10.6793 83.0751 10.0175 84.1522 9.54645C85.2521 9.07538 86.475 8.83984 87.8217 8.83984Z" fill="#151315"/>
<path d="M106.095 8.8398C107.845 8.8398 109.271 9.43423 110.37 10.6231C111.492 11.812 112.053 13.5729 112.053 15.9059V26.505H106.263L106.23 16.8143C106.23 15.9619 105.994 15.3675 105.523 15.031C105.051 14.6721 104.524 14.4927 103.94 14.4927C103.312 14.4927 102.784 14.6609 102.358 14.9974C101.932 15.3114 101.561 15.6928 101.247 16.1414V26.505H95.457V3.96082H101.247V11.5653C101.786 10.825 102.437 10.1857 103.2 9.64734C103.985 9.10897 104.95 8.8398 106.095 8.8398Z" fill="#151315"/>
<path d="M111.761 4.0918V4.80778H110.899V6.98619H110.08V4.80778H109.218V4.0918H111.761Z" fill="#151315"/>
<path d="M115.122 4.0481V6.99891H114.304V5.56691L113.704 6.23952H113.459L112.86 5.56691V6.99891H112.041V4.0481H112.33L113.582 5.30653L114.833 4.0481H115.122Z" fill="#151315"/>
</svg>
