<svg width="120" height="31" viewBox="0 0 120 31" fill="none" xmlns="http://www.w3.org/2000/svg">
<path d="M45.8256 9.12378V30.5685H40.5785V21.7401H32.4161V30.5685H27.1689V9.12378H32.4161V17.5245H40.5785V9.12378H45.8256Z" fill="#160606"/>
<path d="M51.0249 11.7509C50.1043 11.7509 49.3474 11.4861 48.7543 10.9566C48.1815 10.4068 47.895 9.7347 47.895 8.94046C47.895 8.12586 48.1815 7.45381 48.7543 6.92429C49.3474 6.37445 50.1043 6.09949 51.0249 6.09949C51.925 6.09949 52.6617 6.37445 53.2341 6.92429C53.8276 7.45381 54.1241 8.12586 54.1241 8.94046C54.1241 9.7347 53.8276 10.4068 53.2341 10.9566C52.6617 11.4861 51.925 11.7509 51.0249 11.7509ZM53.6331 13.5227V30.5685H48.386V13.5227H53.6331Z" fill="#160606"/>
<path d="M65.7511 26.1388V30.5685H63.0815C61.1789 30.5685 59.6959 30.1102 58.6324 29.1937C57.5685 28.2571 57.0368 26.7397 57.0368 24.642V17.8605H54.9502V13.5227H57.0368V9.36816H62.2839V13.5227H65.7204V17.8605H62.2839V24.7034C62.2839 25.2123 62.4066 25.579 62.6519 25.8031C62.8976 26.0268 63.3066 26.1388 63.8795 26.1388H65.7511Z" fill="#160606"/>
<path d="M83.5875 21.7706C83.5875 22.2594 83.5568 22.7687 83.4955 23.298H71.6203C71.7022 24.3571 72.0398 25.1717 72.6329 25.742C73.2465 26.2918 73.9933 26.5665 74.8728 26.5665C76.1824 26.5665 77.0925 26.0167 77.6041 24.917H83.1885C82.9021 26.0372 82.3804 27.0453 81.6236 27.9413C80.8873 28.8374 79.9565 29.5398 78.8313 30.0491C77.7062 30.5584 76.4482 30.8126 75.0572 30.8126C73.3797 30.8126 71.8861 30.4564 70.577 29.7435C69.2678 29.031 68.2451 28.0124 67.5084 26.6886C66.7721 25.3652 66.4038 23.8174 66.4038 22.0454C66.4038 20.2737 66.7621 18.726 67.4778 17.4023C68.2144 16.0786 69.2372 15.0603 70.5463 14.3475C71.8555 13.6347 73.3591 13.2783 75.0572 13.2783C76.7141 13.2783 78.187 13.6245 79.4756 14.3169C80.7646 15.0094 81.7668 15.9971 82.4829 17.2801C83.2192 18.5631 83.5875 20.0599 83.5875 21.7706ZM78.2177 20.3958C78.2177 19.4999 77.9107 18.7871 77.2971 18.2576C76.6834 17.7281 75.9161 17.4634 74.9958 17.4634C74.116 17.4634 73.3696 17.7179 72.7556 18.2271C72.1625 18.7362 71.7942 19.4591 71.6509 20.3958H78.2177Z" fill="#160606"/>
<path d="M84.085 22.0454C84.085 20.2737 84.4428 18.726 85.1589 17.4023C85.8952 16.0786 86.9078 15.0603 88.1968 14.3475C89.506 13.6347 90.9991 13.2783 92.6766 13.2783C94.8245 13.2783 96.6146 13.8384 98.0464 14.9585C99.4992 16.0786 100.45 17.6569 100.9 19.6934H95.3155C94.8451 18.39 93.9349 17.7383 92.5846 17.7383C91.6232 17.7383 90.8559 18.1151 90.2834 18.8686C89.7105 19.6017 89.4241 20.6605 89.4241 22.0454C89.4241 23.4302 89.7105 24.4997 90.2834 25.2532C90.8559 25.9862 91.6232 26.3529 92.5846 26.3529C93.9349 26.3529 94.8451 25.701 95.3155 24.3977H100.9C100.45 26.3934 99.4992 27.9618 98.0464 29.1021C96.594 30.2427 94.8044 30.8126 92.6766 30.8126C90.9991 30.8126 89.506 30.4564 88.1968 29.7435C86.9078 29.031 85.8952 28.0124 85.1589 26.6886C84.4428 25.3652 84.085 23.8174 84.085 22.0454Z" fill="#160606"/>
<path d="M113.004 13.3394C114.968 13.3394 116.543 13.9911 117.73 15.2945C118.916 16.5775 119.51 18.3493 119.51 20.6099V30.5685H114.293V21.3124C114.293 20.1722 113.996 19.2861 113.403 18.6548C112.81 18.0234 112.012 17.7078 111.01 17.7078C110.008 17.7078 109.21 18.0234 108.617 18.6548C108.023 19.2861 107.727 20.1722 107.727 21.3124V30.5685H102.479V7.96301H107.727V15.8138C108.258 15.0603 108.985 14.4595 109.905 14.0115C110.826 13.5635 111.859 13.3394 113.004 13.3394Z" fill="#160606"/>
<path d="M0 19.359V0.816162H6.21009V10.3481C7.29394 9.93158 8.4718 9.70322 9.70326 9.70322C15.0622 9.70322 19.4064 14.0281 19.4064 19.3631V30.5685H13.1964V19.3631C13.1964 17.4425 11.6325 15.8855 9.70326 15.8855C7.77487 15.8855 6.21145 17.4411 6.21009 19.3605C6.21009 19.3614 6.21009 19.3622 6.21009 19.3631V30.5685H0V19.3631C0 19.3617 0 19.3604 0 19.359Z" fill="#160606"/>
<path d="M13.1963 6.99918V0.816162H19.4062V6.99918H13.1963Z" fill="#160606"/>
</svg>
