<svg width="102" height="31" viewBox="0 0 102 31" fill="none" xmlns="http://www.w3.org/2000/svg">
<path d="M37.812 7.57996H40.8662V23.952H37.812V7.57996Z" fill="black"/>
<path d="M50.9766 11.3223C52.5585 11.3223 53.8273 11.7822 54.7826 12.7022C55.738 13.6221 56.2156 14.9865 56.2156 16.7952V23.952H53.279V17.1696C53.279 16.0779 53.0205 15.2594 52.5036 14.7136C51.9869 14.1523 51.2507 13.8716 50.2954 13.8716C49.2145 13.8716 48.3608 14.1991 47.7345 14.8539C47.108 15.4933 46.7945 16.4211 46.7945 17.6372V23.952H43.8579V11.4626H46.6536V13.0764C47.1393 12.4995 47.7502 12.0629 48.4863 11.7667C49.2225 11.4704 50.0526 11.3223 50.9766 11.3223Z" fill="black"/>
<path d="M70.2837 11.4626L64.9035 23.952H61.8729L56.4927 11.4626H59.5469L63.4468 20.7245L67.4643 11.4626H70.2837Z" fill="black"/>
<path d="M82.3941 17.7774C82.3941 17.9803 82.3784 18.2685 82.3471 18.6429H72.503C72.6755 19.5628 73.1219 20.2956 73.8424 20.8414C74.5785 21.3716 75.4869 21.6366 76.5675 21.6366C77.9459 21.6366 79.0814 21.1843 79.9741 20.28L81.5484 22.081C80.9844 22.7515 80.2716 23.2582 79.4102 23.6011C78.5488 23.9443 77.5778 24.1157 76.4972 24.1157C75.1188 24.1157 73.905 23.8428 72.8555 23.2973C71.8062 22.7515 70.9917 21.9951 70.4121 21.0285C69.8482 20.0462 69.5664 18.939 69.5664 17.7074C69.5664 16.4911 69.8405 15.3996 70.3888 14.4329C70.9524 13.4506 71.7279 12.6866 72.7145 12.1409C73.7012 11.5951 74.8134 11.3223 76.0506 11.3223C77.2724 11.3223 78.3609 11.5951 79.3163 12.1409C80.2873 12.671 81.0391 13.4272 81.5717 14.4095C82.12 15.3763 82.3941 16.499 82.3941 17.7774ZM76.0506 13.6611C75.1109 13.6611 74.3121 13.9418 73.6542 14.5031C73.012 15.0488 72.6206 15.7817 72.4797 16.7016H79.5984C79.4728 15.7973 79.0891 15.0644 78.4472 14.5031C77.805 13.9418 77.0062 13.6611 76.0506 13.6611Z" fill="black"/>
<path d="M86.8361 13.287C87.6818 11.9772 89.1697 11.5562 91.2996 11.5562V13.8951C91.0491 13.8483 90.822 13.8249 90.6184 13.8249C89.4752 13.8249 88.5822 14.3706 87.9403 15.0411C87.2981 15.6959 86.977 16.647 86.977 17.8945V23.952H84.04V11.4626H86.8361V13.287Z" fill="black"/>
<path d="M101.208 23.2738C100.863 23.5543 100.44 23.7649 99.9389 23.9052C99.4535 24.0457 98.9366 24.1157 98.3883 24.1157C97.0099 24.1157 95.945 23.7572 95.1932 23.04C94.4413 22.3227 94.0656 21.2778 94.0656 19.9059V13.895H91.998V11.5561H94.0656V8.70276H97.0022V11.5561H100.362V13.895H97.0022V19.8357C97.0022 20.4438 97.1511 20.9114 97.4486 21.239C97.7461 21.5507 98.1768 21.7069 98.7407 21.7069C99.3986 21.7069 99.9468 21.5352 100.385 21.1923L101.208 23.2738Z" fill="black"/>
<path fill-rule="evenodd" clip-rule="evenodd" d="M30.1313 15.8144C30.1313 24.0978 23.3864 30.8126 15.0657 30.8126C6.74514 30.8126 0 24.0978 0 15.8144C0 7.5311 6.74514 0.816162 15.0657 0.816162C23.3864 0.816162 30.1313 7.5311 30.1313 15.8144ZM25.3966 15.8144C25.3966 21.4943 20.7714 26.0988 15.066 26.0988C14.6704 26.0988 14.2799 26.0767 13.8959 26.0338C19.0879 25.4906 23.1344 21.1188 23.1344 15.8059C23.1344 10.5198 19.1281 6.16512 13.9736 5.58672C14.3325 5.54916 14.697 5.5299 15.066 5.5299C20.7714 5.5299 25.3966 10.1344 25.3966 15.8144ZM11.7297 23.0585C15.1345 22.4598 17.7243 19.4443 17.7243 15.8144C17.7243 12.1844 15.1345 9.16888 11.7297 8.57031C12.1417 8.49931 12.5654 8.46232 12.9978 8.46232C17.0765 8.46232 20.383 11.754 20.383 15.8144C20.383 19.8748 17.0765 23.1665 12.9978 23.1665C12.5654 23.1665 12.1417 23.1294 11.7297 23.0585Z" fill="black"/>
</svg>
