<svg width="98" height="31" viewBox="0 0 98 31" fill="none" xmlns="http://www.w3.org/2000/svg">
<path d="M15.0657 30.8126C23.3862 30.8126 30.1313 24.0977 30.1313 15.8144C30.1313 7.5311 23.3862 0.816162 15.0657 0.816162C6.74513 0.816162 0 7.5311 0 15.8144C0 24.0977 6.74513 30.8126 15.0657 30.8126Z" fill="black"/>
<path fill-rule="evenodd" clip-rule="evenodd" d="M19.9795 8.01034C18.7589 7.40458 17.3299 7.37611 16.0859 7.93274L8.5989 11.2832C8.09802 11.5073 7.77584 12.0031 7.77584 12.5498V13.4334C7.77584 13.96 8.07503 14.4413 8.54843 14.6762L14.6005 17.68C14.9925 17.8744 15.4534 17.8744 15.8454 17.68L21.9506 14.6499C23.0228 14.1178 24.283 14.8942 24.283 16.0868V17.2187C24.283 17.8275 23.9371 18.3841 23.3897 18.6557L15.9425 22.3517C15.4894 22.5766 14.9565 22.5766 14.5034 22.3517L8.70182 19.4723C8.27613 19.2609 7.77584 19.5692 7.77584 20.0428C7.77584 20.2844 7.91316 20.5055 8.13047 20.6133L14.6081 23.8282C14.9973 24.0215 15.4548 24.0229 15.8454 23.8318L20.929 21.3473C21.3288 21.1518 21.8117 21.316 22.0081 21.714C22.2042 22.112 22.0393 22.593 21.6395 22.7886L15.9366 25.576C15.4852 25.7965 14.9563 25.7949 14.5062 25.5716L7.05629 21.8742C6.50895 21.6026 6.16309 21.046 6.16309 20.4372V19.0126C6.16309 17.82 7.42319 17.0437 8.49539 17.5758L14.6005 20.606C14.9925 20.8005 15.4534 20.8005 15.8454 20.606L22.3884 17.3586C22.5611 17.2728 22.6702 17.0973 22.6702 16.9054C22.6702 16.529 22.2726 16.284 21.9344 16.4521L15.9425 19.4259C15.4894 19.6506 14.9565 19.6506 14.5034 19.4259L7.05629 15.7297C6.50895 15.458 6.16309 14.9017 6.16309 14.2928V11.6514C6.16309 11.0194 6.53554 10.4462 7.11462 10.1871L15.4247 6.46836C17.1098 5.71431 19.0457 5.75289 20.6991 6.57348C23.7153 8.07042 23.6525 12.3761 20.5939 13.7851L15.9168 15.9396C15.4682 16.1463 14.9496 16.1368 14.5087 15.9141L10.0861 13.6765C9.6891 13.4757 9.5308 12.9925 9.73254 12.5972C9.9343 12.2019 10.4197 12.0443 10.8167 12.2452L14.636 14.1773C15.0171 14.3701 15.466 14.3783 15.8538 14.1996L19.9165 12.328C21.7478 11.4844 21.7855 8.9066 19.9795 8.01034Z" fill="white"/>
<path d="M39.5471 11.5136V14.7112H43.86V16.7393H39.5471V20.1194H44.4108V22.2025H36.9775V9.43066H44.4108V11.5136H39.5471Z" fill="black"/>
<path d="M48.5813 13.56C48.9116 13.0728 49.3644 12.6769 49.9394 12.3724C50.527 12.0678 51.1938 11.9156 51.9401 11.9156C52.8089 11.9156 53.592 12.1287 54.2895 12.5551C54.999 12.9814 55.5558 13.5905 55.9595 14.3822C56.3755 15.1617 56.5836 16.0694 56.5836 17.1048C56.5836 18.14 56.3755 19.0599 55.9595 19.8636C55.5558 20.6555 54.999 21.2707 54.2895 21.7092C53.592 22.1475 52.8089 22.3669 51.9401 22.3669C51.1815 22.3669 50.5147 22.2208 49.9394 21.9284C49.3767 21.624 48.9239 21.234 48.5813 20.7591V22.2025H46.0117V8.68152H48.5813V13.56ZM53.9589 17.1048C53.9589 16.4957 53.8305 15.9719 53.5736 15.5333C53.3289 15.0826 52.9986 14.7415 52.5823 14.5101C52.1786 14.2787 51.7381 14.163 51.261 14.163C50.7959 14.163 50.3554 14.2848 49.9394 14.5284C49.5357 14.7598 49.2054 15.1009 48.9484 15.5517C48.7037 16.0022 48.5813 16.5321 48.5813 17.1412C48.5813 17.7503 48.7037 18.2802 48.9484 18.7307C49.2054 19.1815 49.5357 19.5287 49.9394 19.7723C50.3554 20.0039 50.7959 20.1194 51.261 20.1194C51.7381 20.1194 52.1786 19.9978 52.5823 19.7539C52.9986 19.5103 53.3289 19.1632 53.5736 18.7127C53.8305 18.2619 53.9589 17.7258 53.9589 17.1048Z" fill="black"/>
<path d="M62.2314 22.3669C61.2527 22.3669 60.3716 22.1536 59.5885 21.7273C58.8054 21.2887 58.1874 20.6738 57.7349 19.882C57.2943 19.0901 57.0742 18.1766 57.0742 17.1412C57.0742 16.1057 57.3005 15.1922 57.7533 14.4005C58.2181 13.6087 58.8483 12.9996 59.6435 12.5733C60.4389 12.1348 61.3261 11.9155 62.3048 11.9155C63.2838 11.9155 64.171 12.1348 64.9661 12.5733C65.7615 12.9996 66.3856 13.6087 66.8382 14.4005C67.3032 15.1922 67.5356 16.1057 67.5356 17.1412C67.5356 18.1766 67.2971 19.0901 66.82 19.882C66.3549 20.6738 65.7188 21.2887 64.9111 21.7273C64.1157 22.1536 63.2227 22.3669 62.2314 22.3669ZM62.2314 20.1378C62.6965 20.1378 63.1309 20.0281 63.5346 19.8089C63.9506 19.5776 64.2809 19.2365 64.5256 18.7857C64.7705 18.3349 64.8927 17.7869 64.8927 17.1412C64.8927 16.1788 64.6358 15.4419 64.1219 14.9303C63.6203 14.4066 63.0023 14.1447 62.2682 14.1447C61.5339 14.1447 60.9162 14.4066 60.4143 14.9303C59.925 15.4419 59.6803 16.1788 59.6803 17.1412C59.6803 18.1036 59.9188 18.8465 60.3962 19.3704C60.8856 19.882 61.4974 20.1378 62.2314 20.1378Z" fill="black"/>
<path d="M73.2014 22.3669C72.2224 22.3669 71.3417 22.1536 70.5585 21.7273C69.7754 21.2887 69.1574 20.6738 68.7049 19.882C68.2644 19.0901 68.0439 18.1766 68.0439 17.1412C68.0439 16.1057 68.2705 15.1922 68.723 14.4005C69.1881 13.6087 69.8183 12.9996 70.6135 12.5733C71.4089 12.1348 72.2961 11.9155 73.2748 11.9155C74.2538 11.9155 75.1407 12.1348 75.9361 12.5733C76.7315 12.9996 77.3557 13.6087 77.8082 14.4005C78.2733 15.1922 78.5057 16.1057 78.5057 17.1412C78.5057 18.1766 78.2671 19.0901 77.7898 19.882C77.325 20.6738 76.6886 21.2887 75.8812 21.7273C75.0858 22.1536 74.1924 22.3669 73.2014 22.3669ZM73.2014 20.1378C73.6665 20.1378 74.1009 20.0281 74.5046 19.8089C74.9206 19.5776 75.2509 19.2365 75.4956 18.7857C75.7403 18.3349 75.8628 17.7869 75.8628 17.1412C75.8628 16.1788 75.6058 15.4419 75.0919 14.9303C74.5903 14.4066 73.9723 14.1447 73.2383 14.1447C72.504 14.1447 71.886 14.4066 71.3843 14.9303C70.895 15.4419 70.6503 16.1788 70.6503 17.1412C70.6503 18.1036 70.8889 18.8465 71.3659 19.3704C71.8556 19.882 72.4674 20.1378 73.2014 20.1378Z" fill="black"/>
<path d="M85.6766 22.2025L82.2263 17.8903V22.2025H79.6567V8.68152H82.2263V16.3738L85.6401 12.08H88.9805L84.502 17.1595L89.017 22.2025H85.6766Z" fill="black"/>
<path d="M93.5314 22.3669C92.6995 22.3669 91.9531 22.2208 91.2925 21.9284C90.6316 21.624 90.1054 21.2157 89.7139 20.7041C89.3345 20.1925 89.1267 19.6262 89.0898 19.0048H91.6778C91.7269 19.3948 91.9163 19.7175 92.2466 19.9733C92.5892 20.2291 93.0116 20.3569 93.5133 20.3569C94.0026 20.3569 94.3821 20.2597 94.651 20.0647C94.9325 19.8697 95.0731 19.62 95.0731 19.3156C95.0731 18.9865 94.9018 18.7429 94.5592 18.5846C94.2289 18.4141 93.6969 18.2313 92.9625 18.0366C92.204 17.8539 91.5799 17.665 91.0905 17.47C90.6134 17.2753 90.1972 16.9768 89.8426 16.5749C89.5 16.1727 89.3287 15.6308 89.3287 14.9487C89.3287 14.3883 89.4877 13.8767 89.8057 13.4138C90.1361 12.9509 90.6011 12.5855 91.2007 12.3175C91.8125 12.0495 92.5281 11.9155 93.3481 11.9155C94.5592 11.9155 95.5259 12.22 96.248 12.8291C96.9697 13.426 97.3676 14.236 97.4409 15.2592H94.9816C94.9448 14.8573 94.7735 14.5405 94.4677 14.3091C94.1739 14.0655 93.7764 13.9437 93.2745 13.9437C92.8096 13.9437 92.4486 14.0289 92.1917 14.1995C91.947 14.37 91.8245 14.6075 91.8245 14.912C91.8245 15.2531 91.9958 15.515 92.3384 15.6977C92.681 15.8683 93.2134 16.0449 93.9354 16.2277C94.6694 16.4104 95.2751 16.599 95.7525 16.794C96.2295 16.989 96.6394 17.2934 96.982 17.7075C97.3369 18.1097 97.5204 18.6454 97.5327 19.3156C97.5327 19.9003 97.3676 20.4241 97.0372 20.8868C96.7189 21.3498 96.2541 21.7151 95.6423 21.9831C95.0427 22.2389 94.3391 22.3669 93.5314 22.3669Z" fill="black"/>
</svg>
