<svg width="145" height="31" viewBox="0 0 145 31" fill="none" xmlns="http://www.w3.org/2000/svg">
<path d="M5.64423 0.803345H0.499998C0.223849 0.803345 0 1.02717 0 1.30329V10.9957L5.64423 0.803345Z" fill="black"/>
<path d="M0 14.1131C0.01625 14.1138 0.03265 14.1142 0.0492 14.1142H7.89209C8.50599 14.1142 8.98834 14.6386 8.93599 15.2491L8.25734 23.1631C8.16089 24.2876 9.67114 24.746 10.2182 23.7581L18.3677 9.04172C18.7537 8.34475 18.2486 7.49011 17.4508 7.49011H9.60789C8.99399 7.49011 8.51164 6.96572 8.56399 6.35524L9.04009 0.803345H16.9545C24.2476 0.803345 27.517 9.97551 21.8764 14.6123L17.467 18.2371C17.1782 18.4745 17.1213 18.8954 17.3367 19.2013L24.9455 30.0119C25.179 30.3434 24.942 30.7998 24.5367 30.7998H0.499999C0.22385 30.7998 0 30.5758 0 30.2999V14.1131Z" fill="black"/>
<path d="M85.6785 17.0413V24.621H89.8655V16.111C89.8655 15.1077 89.647 14.2321 89.209 13.4841C88.7895 12.7178 88.1875 12.1249 87.403 11.7055C86.618 11.2676 85.706 11.0486 84.666 11.0486C83.6445 11.0486 82.741 11.2676 81.957 11.7055C81.7485 11.8169 81.5525 11.9413 81.3685 12.0785C81.269 12.1525 81.1735 12.2304 81.081 12.3119V5.30249H76.894V24.621H81.081V17.0413C81.081 16.5853 81.1815 16.184 81.3825 15.8374C81.583 15.4724 81.8565 15.1988 82.203 15.0164C82.55 14.8157 82.951 14.7154 83.407 14.7154C84.064 14.7154 84.6025 14.9344 85.022 15.3721C85.46 15.7917 85.6785 16.3481 85.6785 17.0413Z" fill="black"/>
<path fill-rule="evenodd" clip-rule="evenodd" d="M39.1578 16.6583V24.621H34.8618V5.30249H42.7428C44.0203 5.30249 45.1423 5.54881 46.1093 6.04115C47.0758 6.5155 47.8333 7.18141 48.3808 8.03871C48.9278 8.89606 49.2013 9.88129 49.2013 10.994C49.2013 12.1249 48.9278 13.1192 48.3808 13.9765C47.8333 14.8157 47.0673 15.4724 46.0818 15.9467C45.5323 16.2113 44.9288 16.4022 44.2713 16.5191L50.4608 24.621H45.3703L39.6078 16.6583H39.1578ZM39.1578 13.4841H42.2233C43.0808 13.4841 43.7378 13.2651 44.1938 12.8272C44.6678 12.3895 44.9053 11.7966 44.9053 11.0486C44.9053 10.3556 44.6773 9.78095 44.2208 9.32496C43.7648 8.86871 43.1083 8.64069 42.2508 8.64069H39.1578V13.4841Z" fill="black"/>
<path fill-rule="evenodd" clip-rule="evenodd" d="M53.2222 24.0467C54.3537 24.6304 55.6397 24.9224 57.0807 24.9224C58.1942 24.9224 59.2157 24.7307 60.1462 24.3477C61.0762 23.9644 61.8702 23.3898 62.5272 22.6238L60.2282 20.3252C59.8267 20.7812 59.3617 21.1278 58.8322 21.3651C58.3032 21.5838 57.7107 21.6935 57.0532 21.6935C56.3422 21.6935 55.7217 21.5475 55.1927 21.2555C54.6817 20.9455 54.2807 20.5168 53.9887 19.9695C53.8967 19.7796 53.8207 19.5774 53.7597 19.3629L63.2932 19.3402C63.3662 18.9935 63.4117 18.6925 63.4297 18.4372C63.4427 18.3418 63.4527 18.2487 63.4612 18.1577C63.4657 18.1125 63.4687 18.0681 63.4717 18.0241C63.4762 17.958 63.4797 17.8931 63.4817 17.8294L63.4837 17.759L63.4847 17.6709C63.4847 16.3756 63.1932 15.2263 62.6092 14.223C62.0437 13.2197 61.2592 12.4354 60.2557 11.8697C59.2522 11.3044 58.0932 11.0215 56.7802 11.0215C55.4297 11.0215 54.2167 11.3225 53.1402 11.9244C52.0637 12.5264 51.2062 13.3567 50.5677 14.4147C49.9472 15.4544 49.6372 16.6402 49.6372 17.9719C49.6372 19.3036 49.9567 20.4985 50.5947 21.5565C51.2337 22.6145 52.1097 23.4447 53.2222 24.0467ZM53.7607 16.4889C53.7812 16.4176 53.8032 16.3478 53.8267 16.2795C53.8667 16.1642 53.9112 16.0532 53.9612 15.947C54.2352 15.3997 54.6092 14.98 55.0832 14.6883C55.5757 14.378 56.1507 14.223 56.8072 14.223C57.4272 14.223 57.9472 14.36 58.3672 14.6337L58.4237 14.6673L58.4797 14.7032C58.5272 14.7347 58.5727 14.7679 58.6172 14.8026C58.6607 14.8365 58.7032 14.8721 58.7442 14.9092C58.9987 15.1397 59.2012 15.4309 59.3522 15.7829C59.4442 15.989 59.5182 16.2187 59.5747 16.4723L53.7607 16.4889Z" fill="black"/>
<path d="M70.8436 24.9224C69.4746 24.9224 68.2341 24.6213 67.1211 24.0194C66.0086 23.4174 65.1331 22.5872 64.4941 21.5291C63.8556 20.4711 63.5361 19.2853 63.5361 17.9719C63.5361 16.6402 63.8556 15.4544 64.4941 14.4147C65.1511 13.3567 66.0356 12.5264 67.1486 11.9244C68.2616 11.3225 69.5111 11.0215 70.8981 11.0215C71.9376 11.0215 72.8861 11.2041 73.7441 11.5688C74.1811 11.7419 74.5936 11.9603 74.9806 12.2242C75.3686 12.4891 75.7321 12.7996 76.0701 13.156L73.3881 15.8376C73.0781 15.491 72.7131 15.2356 72.2936 15.0714C72.1041 14.994 71.9011 14.9349 71.6831 14.8939C71.5836 14.8751 71.4816 14.8602 71.3766 14.8492C71.2681 14.8377 71.1566 14.8304 71.0416 14.8272C70.9941 14.8257 70.9466 14.825 70.8981 14.825C70.7501 14.825 70.6061 14.8333 70.4661 14.8497L70.3906 14.8594L70.3436 14.8663C70.2951 14.8738 70.2466 14.8826 70.1986 14.8922C69.8706 14.9581 69.5656 15.0726 69.2831 15.2356C68.8271 15.491 68.4626 15.8557 68.1886 16.33C67.9331 16.7862 67.8051 17.3243 67.8051 17.9446C67.8051 18.5648 67.9331 19.1122 68.1886 19.5862C68.4626 20.0605 68.8366 20.4345 69.3106 20.7082C69.7846 20.9818 70.3141 21.1188 70.8981 21.1188C71.4456 21.1188 71.9286 21.0275 72.3481 20.8451C72.7861 20.6445 73.1601 20.3708 73.4701 20.0242L76.1251 22.7058C75.4316 23.4354 74.6471 23.9918 73.7716 24.375C72.8956 24.7397 71.9196 24.9224 70.8436 24.9224Z" fill="black"/>
<path fill-rule="evenodd" clip-rule="evenodd" d="M97.0157 24.8945C95.7937 24.8945 94.6987 24.5935 93.7322 23.9913C92.7832 23.3893 92.0262 22.5686 91.4607 21.5287C90.9132 20.489 90.6392 19.3031 90.6392 17.9715C90.6392 16.6398 90.9132 15.454 91.4607 14.4143C92.0262 13.3743 92.7832 12.5536 93.7322 11.9514C94.6987 11.3494 95.7937 11.0485 97.0157 11.0485C97.9097 11.0485 98.7127 11.2217 99.4242 11.5684C99.9027 11.7957 100.322 12.0817 100.683 12.4265V11.3221H104.788V24.6209H100.683V23.5433C100.436 23.7765 100.159 23.983 99.8522 24.1629C99.7962 24.1959 99.7387 24.2281 99.6802 24.2594C99.6057 24.2991 99.5292 24.3374 99.4512 24.3745C98.7217 24.7212 97.9097 24.8945 97.0157 24.8945ZM97.8647 21.1183C98.7587 21.1183 99.4787 20.8264 100.026 20.2427C100.574 19.6407 100.847 18.8835 100.847 17.9715C100.847 17.6612 100.815 17.3692 100.751 17.0956C100.687 16.822 100.592 16.5666 100.464 16.3296C100.227 15.8553 99.8802 15.4906 99.4242 15.2352C99.1777 15.0812 98.9082 14.9706 98.6157 14.9032C98.3882 14.8507 98.1472 14.8246 97.8917 14.8246C97.6002 14.8246 97.3242 14.8588 97.0647 14.9272C96.9062 14.9689 96.7532 15.0233 96.6067 15.0904C96.5127 15.1334 96.4212 15.1817 96.3317 15.2352C95.8937 15.4906 95.5382 15.8553 95.2642 16.3296C95.0092 16.8039 94.8817 17.3512 94.8817 17.9715C94.8817 18.5735 95.0092 19.1117 95.2642 19.5858C95.5197 20.0601 95.8757 20.4341 96.3317 20.7078C96.7877 20.9814 97.2987 21.1183 97.8647 21.1183Z" fill="black"/>
<path d="M110.828 11.3221H106.641V24.6208H110.828V17.3148C110.828 16.4572 111.029 15.8189 111.43 15.3993C111.85 14.9616 112.407 14.7426 113.1 14.7426C113.447 14.7426 113.757 14.7973 114.031 14.9069C114.304 15.0163 114.532 15.1712 114.715 15.3719L117.205 12.2251C116.84 11.8237 116.411 11.532 115.919 11.3494C115.445 11.1488 114.888 11.0485 114.249 11.0485C112.79 11.0485 111.65 11.4774 110.828 12.3347V11.3221Z" fill="black"/>
<path fill-rule="evenodd" clip-rule="evenodd" d="M122.489 30.5859C121.029 30.5859 119.743 30.3305 118.63 29.82C117.535 29.3276 116.669 28.6252 116.03 27.7128L118.602 25.1406C119.077 25.7062 119.606 26.1349 120.19 26.4269C120.792 26.7184 121.512 26.8644 122.352 26.8644C123.392 26.8644 124.203 26.6094 124.787 26.0984C125.389 25.5876 125.691 24.867 125.691 23.9366V23.0967C125.406 23.3246 125.086 23.5224 124.733 23.6904C124.003 24.037 123.191 24.2103 122.297 24.2103C121.074 24.2103 119.989 23.9186 119.04 23.3346C118.092 22.751 117.344 21.9574 116.796 20.9541C116.249 19.9508 115.975 18.8381 115.975 17.6158C115.975 16.3752 116.249 15.2626 116.796 14.2773C117.344 13.274 118.092 12.4897 119.04 11.9241C119.989 11.3404 121.074 11.0485 122.297 11.0485C123.209 11.0485 124.021 11.2217 124.733 11.5684C124.798 11.5977 124.862 11.6282 124.925 11.6599C125.236 11.8167 125.518 12.002 125.773 12.2158V11.3221H129.878V23.8273C129.878 25.1955 129.558 26.3814 128.92 27.3843C128.281 28.3877 127.406 29.1721 126.293 29.7375C125.179 30.3035 123.912 30.5859 122.489 30.5859ZM123.091 20.4891C123.675 20.4891 124.176 20.3611 124.596 20.1058C124.703 20.0431 124.804 19.9752 124.899 19.9024C125.188 19.6796 125.416 19.4098 125.581 19.0934C125.652 18.9631 125.712 18.8281 125.761 18.6882C125.825 18.5068 125.872 18.3172 125.901 18.1194C125.925 17.9571 125.937 17.7892 125.937 17.6158C125.937 17.0685 125.818 16.5759 125.581 16.1382C125.362 15.7002 125.033 15.3536 124.596 15.0983C124.176 14.8429 123.675 14.7153 123.091 14.7153C122.918 14.7153 122.752 14.7273 122.592 14.7509L122.508 14.7646L122.434 14.7782C122.275 14.8102 122.122 14.8544 121.975 14.9108C121.893 14.9423 121.813 14.9777 121.736 15.0168C121.685 15.0424 121.635 15.0695 121.586 15.0983C121.148 15.3536 120.81 15.7002 120.573 16.1382C120.449 16.3662 120.358 16.6091 120.299 16.8669C120.244 17.1039 120.217 17.3537 120.217 17.6158C120.217 18.1265 120.336 18.6099 120.573 19.0661C120.81 19.5038 121.138 19.8504 121.558 20.1058C121.793 20.243 122.05 20.3435 122.327 20.407C122.566 20.4617 122.821 20.4891 123.091 20.4891Z" fill="black"/>
<path fill-rule="evenodd" clip-rule="evenodd" d="M134.447 24.0467C135.578 24.6304 136.864 24.9224 138.305 24.9224C139.418 24.9224 140.44 24.7307 141.37 24.3477C142.301 23.9644 143.094 23.3898 143.751 22.6238L141.452 20.3252C141.051 20.7812 140.586 21.1278 140.057 21.3651C139.528 21.5838 138.935 21.6935 138.278 21.6935C137.567 21.6935 136.946 21.5475 136.417 21.2555C136.052 21.0343 135.744 20.7526 135.491 20.4104C135.45 20.3559 135.412 20.2998 135.374 20.2422C135.317 20.155 135.263 20.064 135.213 19.9695C135.121 19.7796 135.045 19.5774 134.984 19.3629L144.518 19.3402C144.554 19.169 144.583 19.0089 144.606 18.86C144.629 18.7072 144.645 18.5663 144.655 18.4372C144.667 18.3408 144.678 18.2465 144.686 18.1547C144.701 17.9858 144.709 17.8245 144.709 17.6709C144.709 16.3756 144.417 15.2263 143.834 14.223C143.268 13.2197 142.484 12.4354 141.48 11.8697C140.476 11.3044 139.318 11.0215 138.005 11.0215C136.655 11.0215 135.441 11.3225 134.364 11.9244C133.288 12.5264 132.431 13.3567 131.792 14.4147C131.172 15.4544 130.862 16.6402 130.862 17.9719C130.862 19.3036 131.181 20.4985 131.82 21.5565C132.458 22.6145 133.334 23.4447 134.447 24.0467ZM134.986 16.4889C135.04 16.297 135.107 16.1161 135.186 15.947C135.342 15.6345 135.531 15.3638 135.752 15.1348C135.83 15.0545 135.912 14.9793 135.998 14.9092C136.096 14.8289 136.199 14.7552 136.308 14.6883C136.801 14.378 137.375 14.223 138.032 14.223C138.652 14.223 139.172 14.36 139.592 14.6337C139.759 14.7313 139.91 14.8475 140.046 14.9825C140.264 15.2005 140.442 15.4673 140.577 15.7829C140.668 15.989 140.742 16.2187 140.799 16.4723L134.986 16.4889Z" fill="black"/>
</svg>
