<svg width="112" height="31" viewBox="0 0 112 31" fill="none" xmlns="http://www.w3.org/2000/svg">
<path d="M13.7556 30.8126H3.93018L13.7556 16.4666H23.5811L13.7556 30.8126Z" fill="black"/>
<path d="M10.153 0.816162H20.3059L10.153 16.4666H0L10.153 0.816162Z" fill="black"/>
<path d="M44.542 14.0898C44.542 15.0315 44.3103 15.9143 43.847 16.7384C43.4009 17.5622 42.6888 18.2265 41.7109 18.7311C40.7499 19.2355 39.5317 19.4878 38.0561 19.4878H35.0446V26.2479H31.4414V8.64124H38.0561C39.4459 8.64124 40.6298 8.87668 41.6078 9.34753C42.586 9.81839 43.3151 10.4658 43.7957 11.2898C44.2933 12.1138 44.542 13.0471 44.542 14.0898ZM37.9015 16.6374C38.8967 16.6374 39.6345 16.4189 40.1152 15.9817C40.5955 15.5276 40.8357 14.8969 40.8357 14.0898C40.8357 12.3745 39.8577 11.5169 37.9015 11.5169H35.0446V16.6374H37.9015Z" fill="black"/>
<path d="M49.106 14.3013C49.5244 13.5525 50.0666 12.9654 50.7329 12.5399C51.4148 12.1145 52.1895 11.9017 53.0574 11.9017V15.6544H52.1972C51.1746 15.6544 50.3999 15.9181 49.873 16.4457C49.3617 16.9732 49.106 17.8921 49.106 19.2025V26.2479H45.8521V12.106H49.106V14.3013Z" fill="black"/>
<path d="M60.4937 26.2479C59.2065 26.2479 58.0482 25.9554 57.0186 25.3703C55.989 24.7683 55.1764 23.9238 54.5813 22.8369C54.0021 21.7503 53.7124 20.4962 53.7124 19.0748C53.7124 17.6537 54.0101 16.3996 54.6055 15.3127C55.2168 14.2259 56.0453 13.3899 57.0911 12.8047C58.1369 12.2027 59.3032 11.9017 60.5904 11.9017C61.8772 11.9017 63.0436 12.2027 64.0893 12.8047C65.1351 13.3899 65.9557 14.2259 66.5511 15.3127C67.1624 16.3996 67.468 17.6537 67.468 19.0748C67.468 20.4962 67.1541 21.7503 66.5269 22.8369C65.9153 23.9238 65.0788 24.7683 64.0171 25.3703C62.9713 25.9554 61.7968 26.2479 60.4937 26.2479ZM60.4937 23.1882C61.105 23.1882 61.6762 23.0375 62.2071 22.7367C62.7541 22.419 63.1886 21.951 63.5101 21.3322C63.832 20.7134 63.9929 19.961 63.9929 19.0748C63.9929 17.7539 63.6552 16.7424 62.9793 16.04C62.3197 15.321 61.5073 14.9616 60.542 14.9616C59.5767 14.9616 58.7641 15.321 58.1047 16.04C57.461 16.7424 57.1394 17.7539 57.1394 19.0748C57.1394 20.3957 57.4531 21.4158 58.0806 22.1348C58.724 22.8369 59.5284 23.1882 60.4937 23.1882Z" fill="black"/>
<path d="M72.9073 23.4782H76.6384V26.2479H69.4331V6.68494H72.9073V23.4782Z" fill="black"/>
<path d="M79.2585 10.7772C78.695 10.7772 78.2226 10.5859 77.8419 10.2033C77.4763 9.80406 77.2935 9.31332 77.2935 8.73108C77.2935 8.14885 77.4763 7.66642 77.8419 7.28381C78.2226 6.88456 78.695 6.68494 79.2585 6.68494C79.8223 6.68494 80.2867 6.88456 80.6523 7.28381C81.0333 7.66642 81.2236 8.14885 81.2236 8.73108C81.2236 9.31332 81.0333 9.80406 80.6523 10.2033C80.2867 10.5859 79.8223 10.7772 79.2585 10.7772ZM80.8351 12.4241V26.2479H77.6362V12.4241H80.8351Z" fill="black"/>
<path d="M90.8063 11.9017C92.4436 11.9017 93.767 12.4378 94.7761 13.51C95.785 14.5651 96.2896 16.0457 96.2896 17.9516V26.2479H92.8158V18.4367C92.8158 17.3134 92.543 16.4541 91.9972 15.8586C91.4512 15.2459 90.7069 14.9395 89.7641 14.9395C88.8047 14.9395 88.0437 15.2459 87.4813 15.8586C86.9355 16.4541 86.6627 17.3134 86.6627 18.4367V26.2479H83.189V12.106H86.6627V13.8673C87.1258 13.2547 87.7131 12.7782 88.4243 12.4378C89.152 12.0804 89.9459 11.9017 90.8063 11.9017Z" fill="black"/>
<path d="M111.355 18.774C111.355 19.2754 111.321 19.727 111.255 20.1283H101.144C101.227 21.1315 101.577 21.9173 102.193 22.4858C102.809 23.0544 103.566 23.3387 104.465 23.3387C105.763 23.3387 106.686 22.7784 107.236 21.6581H111.005C110.606 22.9959 109.84 24.0993 108.708 24.969C107.577 25.8215 106.187 26.2479 104.539 26.2479C103.208 26.2479 102.01 25.9554 100.945 25.3703C99.896 24.7683 99.0722 23.9238 98.473 22.8369C97.8906 21.7503 97.5991 20.4962 97.5991 19.0748C97.5991 17.6369 97.8906 16.3745 98.473 15.2876C99.0554 14.2008 99.871 13.3648 100.92 12.7796C101.968 12.1943 103.175 11.9017 104.539 11.9017C105.854 11.9017 107.028 12.186 108.06 12.7545C109.108 13.323 109.915 14.1339 110.481 15.1874C111.064 16.224 111.355 17.4197 111.355 18.774ZM107.735 17.7707C107.718 16.8677 107.394 16.1487 106.761 15.6138C106.129 15.0618 105.355 14.7861 104.44 14.7861C103.574 14.7861 102.842 15.0535 102.243 15.5887C101.66 16.107 101.302 16.8343 101.169 17.7707H107.735Z" fill="black"/>
</svg>
