<svg width="106" height="31" viewBox="0 0 106 31" fill="none" xmlns="http://www.w3.org/2000/svg">
<path d="M34.4741 6.53842V2.90796H52.742V6.53842H45.6907V28.0278H41.5986V6.53842H34.4741Z" fill="black"/>
<path d="M63.9316 24.7277L64.9547 24.6178L65.0276 27.5882C62.251 28.1505 59.7908 28.4315 57.6473 28.4315C54.9437 28.4315 52.9952 27.6858 51.8018 26.1947C50.6326 24.7033 50.0479 22.3196 50.0479 19.0437C50.0479 12.5406 52.6908 9.28906 57.9763 9.28906C63.0913 9.28906 65.6489 12.0883 65.6489 17.6867L65.3931 20.5472H54.0668C54.0913 22.0628 54.42 23.1753 55.0534 23.8842C55.6865 24.5933 56.8681 24.9477 58.5973 24.9477C60.3268 24.9477 62.1047 24.8743 63.9316 24.7277ZM61.7394 17.4668C61.7394 15.6578 61.4471 14.3987 60.8626 13.6896C60.3023 12.9562 59.3402 12.5895 57.9763 12.5895C56.6123 12.5895 55.6136 12.9684 54.9802 13.7263C54.3713 14.4842 54.0547 15.7309 54.0305 17.4668H61.7394Z" fill="black"/>
<path d="M67.6519 28.0282V9.69246H71.5976V11.8927C73.6679 10.5481 75.7384 9.68023 77.8087 9.28906V13.2863C75.714 13.7019 73.9237 14.2398 72.4379 14.8997L71.6342 15.23V28.0282H67.6519Z" fill="black"/>
<path d="M79.0259 28.0282V9.69246H82.9719V11.8927C85.0422 10.5481 87.1125 9.68023 89.183 9.28906V13.2863C87.0882 13.7019 85.298 14.2398 83.8122 14.8997L83.0082 15.23V28.0282H79.0259Z" fill="black"/>
<path d="M103.919 15.3399V23.701C103.943 24.2389 104.077 24.6422 104.321 24.9111C104.589 25.1556 104.991 25.3145 105.526 25.3877L105.417 28.4315C103.322 28.4315 101.703 27.9792 100.558 27.0746C98.6091 27.9792 96.6483 28.4315 94.6754 28.4315C91.0462 28.4315 89.2314 26.4881 89.2314 22.6009C89.2314 20.7427 89.7186 19.3981 90.693 18.5669C91.6915 17.7357 93.2138 17.2344 95.2599 17.0634L99.9731 16.66V15.3399C99.9731 14.3619 99.7538 13.6774 99.3154 13.2862C98.9012 12.8951 98.2802 12.6995 97.452 12.6995C95.8933 12.6995 93.9446 12.7973 91.6062 12.9929L90.4372 13.0662L90.2909 10.2425C92.9459 9.60689 95.3817 9.28906 97.5983 9.28906C99.8391 9.28906 101.447 9.778 102.421 10.7559C103.42 11.7094 103.919 13.2374 103.919 15.3399ZM95.7349 19.887C94.0544 20.0338 93.2138 20.9506 93.2138 22.6375C93.2138 24.3244 93.9567 25.1677 95.4425 25.1677C96.6604 25.1677 97.9515 24.9722 99.3154 24.5809L99.9731 24.361V19.4836L95.7349 19.887Z" fill="black"/>
<path fill-rule="evenodd" clip-rule="evenodd" d="M23.421 0.803345C26.6002 0.803345 29.2528 3.05821 29.8663 6.05578C29.9539 6.48402 29.9999 6.92739 29.9999 7.38152V24.2216C29.9999 27.8546 27.0544 30.7998 23.421 30.7998H6.57895C5.8596 30.7998 5.16726 30.6843 4.51937 30.4712C1.89468 29.6068 0 27.1355 0 24.2216V7.38152C0 3.7485 2.9455 0.803345 6.57895 0.803345H23.421ZM20.7526 2.90836H23.421C25.6013 2.90836 27.4173 4.46791 27.8141 6.5322C26.5481 6.67563 25.1007 6.54272 23.5723 5.88782C22.2181 5.30742 21.3197 4.23215 20.7526 2.90836ZM14.506 2.90836H18.5047C19.1692 4.90799 20.4418 6.83647 22.7431 7.82262C24.5891 8.61369 26.3423 8.79719 27.8947 8.64305V10.7939C25.787 11.4611 23.6868 11.7311 22.0063 11.2392C21.1715 10.995 20.2136 10.3464 19.1828 9.32608C18.1663 8.31975 17.1518 7.02545 16.1939 5.61067C15.5986 4.73149 15.0318 3.81565 14.506 2.90836ZM12.0882 2.90836H9.30242C9.42939 5.29037 8.86808 8.19989 6.78003 11.1474C5.39666 13.1002 3.76074 14.1741 2.10526 14.6538V18.8504C3.10279 18.2447 4.27713 17.4174 5.65205 16.3005C8.90071 13.6612 11.4594 12.6111 13.3997 12.419C15.3286 12.228 16.6999 12.8971 17.3039 13.7427C17.9381 14.6304 18.2965 15.82 18.4315 17.0746C18.5681 18.3444 18.4849 19.7608 18.1644 21.1665C17.5278 23.9609 15.9113 26.8695 12.9991 28.4375C12.8405 28.523 12.6805 28.6087 12.5192 28.6948H15.7915C17.0713 27.0702 18.0955 25.4562 18.4628 24.1914C18.8773 22.7634 19.0476 21.2496 19.2065 19.8345L19.2068 19.8343V19.8337C19.2639 19.3256 19.3197 18.8299 19.3847 18.3555C19.4976 17.5335 19.6534 16.6625 19.9878 16.0344C20.1649 15.7021 20.4463 15.3322 20.8989 15.1185C21.3755 14.8935 21.8715 14.9212 22.3065 15.0661C23.526 15.4727 25.147 15.5569 27.8947 14.8685V12.991C25.7757 13.588 23.4655 13.8596 21.4147 13.2595C20.0915 12.8723 18.8355 11.9443 17.7018 10.822C16.5539 9.68577 15.4534 8.27152 14.4507 6.7908C13.5931 5.52421 12.7947 4.19029 12.0882 2.90836ZM27.8947 17.0335C25.277 17.6327 23.3947 17.6077 21.8026 17.1151C21.6849 17.3906 21.5752 17.879 21.4705 18.6418C21.4184 19.0207 21.3702 19.4514 21.3178 19.9171V19.9174C21.1552 21.3688 20.9544 23.1599 20.4844 24.7781C20.1244 26.0185 19.3455 27.3813 18.4197 28.6948H20.5376C20.9284 27.7233 21.2881 26.7982 21.5707 26.0206C21.8744 25.1849 22.0644 24.584 22.1257 24.2782C22.2418 23.6975 22.4631 23.0726 22.9823 22.6297C23.5223 22.1687 24.1855 22.0698 24.8068 22.1014C25.4186 22.1327 26.136 22.2974 26.9452 22.5295C27.2394 22.6137 27.5557 22.71 27.8947 22.8171V17.0335ZM27.8263 25.0055C27.2768 24.8271 26.7931 24.6758 26.3647 24.5529C25.5828 24.3285 25.0584 24.2219 24.6999 24.2037C24.4684 24.1919 24.3747 24.2206 24.3478 24.2324C24.3326 24.2503 24.2578 24.3521 24.1902 24.6911C24.0934 25.1747 23.8484 25.9167 23.5494 26.7395C23.3349 27.33 23.0799 27.9957 22.8039 28.6948H23.421C25.6244 28.6948 27.4557 27.1021 27.8263 25.0055ZM7.97676 28.6948C9.35545 27.9838 10.747 27.2592 12.001 26.584C14.2205 25.3891 15.5644 23.1012 16.1118 20.6989C16.3836 19.5061 16.4484 18.3239 16.3384 17.2998C16.2265 16.2602 15.9436 15.46 15.5907 14.9661C15.537 14.8909 15.0005 14.376 13.607 14.5138C12.2249 14.6507 10.0468 15.4424 6.97963 17.9342C5.05966 19.494 3.45292 20.5626 2.10526 21.2691V23.643C2.43747 23.3391 2.81261 23.0852 3.15929 22.8686C3.51247 22.6479 3.89731 22.4308 4.27552 22.2187L4.36926 22.1661C4.72255 21.9682 5.07321 21.7717 5.42142 21.5633C6.18313 21.107 6.86805 20.6305 7.39471 20.0761C8.30655 19.1162 9.62268 17.9708 10.86 17.1888C11.4704 16.8028 12.1297 16.4615 12.7517 16.3049C13.3355 16.1578 14.2405 16.0981 14.8713 16.8191C15.4715 17.5051 15.7202 18.5339 15.2831 19.8693C14.8678 21.1378 13.8249 22.7392 11.8091 24.8221C9.71663 26.9839 7.6241 28.067 5.85995 28.4122C5.66097 28.4511 5.46524 28.4806 5.27345 28.5014C5.68645 28.6272 6.12479 28.6948 6.57895 28.6948H7.97676ZM2.10526 12.4267C3.12524 12.0037 4.14139 11.2303 5.06208 9.93064C6.88003 7.36444 7.31934 4.87605 7.19423 2.90836H6.57895C4.10818 2.90836 2.10526 4.91107 2.10526 7.38152V12.4267ZM24.3457 24.2335C24.3407 24.2358 24.3386 24.2374 24.3389 24.2374C24.3391 24.2377 24.3402 24.2372 24.342 24.2358L24.3434 24.2351L24.3457 24.2335ZM11.9849 18.968C10.9247 19.638 9.74071 20.6631 8.9211 21.5259C8.19792 22.2871 7.32039 22.8797 6.50316 23.3691C6.1276 23.5938 5.751 23.8048 5.40195 24.0006L5.30526 24.0548C4.92274 24.2693 4.57976 24.4632 4.27502 24.6537C3.61792 25.0642 3.34324 25.3405 3.25713 25.517C3.23245 25.5678 3.2295 25.5967 3.23713 25.6409C3.24795 25.7041 3.29326 25.8496 3.47355 26.0898L3.49108 26.1133L3.50729 26.1375C3.50829 26.1388 3.532 26.1717 3.60734 26.2177C3.68516 26.2653 3.8056 26.319 3.97668 26.3611C4.3205 26.4458 4.82097 26.4703 5.45574 26.3461C6.71795 26.0993 8.44129 25.2747 10.2962 23.3581C12.2278 21.3625 13.0134 20.0353 13.2823 19.2146C13.4423 18.7257 13.4094 18.461 13.3584 18.3258C13.3326 18.3305 13.302 18.3371 13.266 18.3463C12.962 18.4228 12.5232 18.6278 11.9849 18.968ZM13.4715 18.3158C13.471 18.3165 13.4647 18.3165 13.4542 18.3144C13.4665 18.3142 13.472 18.3152 13.4715 18.3158Z" fill="black"/>
</svg>
