<svg width="98" height="31" viewBox="0 0 98 31" fill="none" xmlns="http://www.w3.org/2000/svg">
<path d="M58.3037 27.8879C58.3037 28.2172 58.5788 28.4799 58.9081 28.4639L63.7887 28.2308C64.0963 28.216 64.338 27.9623 64.338 27.6548V12.2332C64.338 11.9056 64.0654 11.6437 63.7381 11.6568L58.8576 11.852C58.5479 11.8644 58.3037 12.1188 58.3037 12.4284V27.8879Z" fill="black"/>
<path d="M59.0628 8.772C59.6602 9.36972 60.4073 9.66856 61.3041 9.66856C62.2465 9.66856 63.0051 9.36972 63.5799 8.772C64.1777 8.15134 64.4767 7.38122 64.4767 6.46168C64.4767 5.56512 64.1777 4.80652 63.5799 4.18581C63.0051 3.56511 62.2465 3.25476 61.3041 3.25476C60.4073 3.25476 59.6602 3.56511 59.0628 4.18581C58.4649 4.80652 58.166 5.56512 58.166 6.46168C58.166 7.38122 58.4649 8.15134 59.0628 8.772Z" fill="black"/>
<path fill-rule="evenodd" clip-rule="evenodd" d="M43.7828 18.5973V26.9795C43.7828 27.257 43.5851 27.4955 43.312 27.5464L38.2933 28.4842C37.9385 28.5508 37.6104 28.2782 37.6104 27.9173V4.62413C37.6104 4.30551 37.869 4.04724 38.1876 4.04724H48.0245C49.6794 4.04724 51.128 4.35756 52.3693 4.97819C53.6336 5.59877 54.6221 6.44926 55.3347 7.52961C56.0472 8.60995 56.4037 9.87415 56.4037 11.3222C56.4037 12.7704 56.0357 14.0461 55.3001 15.1494C54.5876 16.2297 53.5876 17.0802 52.3002 17.7008C51.7435 17.9594 51.1457 18.162 50.5067 18.3087L57.0529 27.2175C57.3716 27.6513 56.9752 28.2466 56.4522 28.1199L51.0412 26.8081C50.9183 26.778 50.8089 26.709 50.7291 26.6107L44.2244 18.5973H43.7828ZM43.7828 14.184H47.1622C48.1737 14.184 48.9438 13.9427 49.4726 13.46C50.0244 12.9543 50.3003 12.2762 50.3003 11.4257C50.3003 10.5982 50.0244 9.93163 49.4726 9.42595C48.9438 8.89725 48.1737 8.63294 47.1622 8.63294H43.7828V14.184Z" fill="black"/>
<path d="M72.5238 28.9756C71.4893 28.9756 70.4663 28.8374 69.4548 28.5616C68.4664 28.2857 67.5351 27.9182 66.6617 27.4585C65.9936 27.0791 65.4036 26.6577 64.8912 26.1935C64.6602 25.9838 64.663 25.6262 64.8814 25.4032L67.3488 22.884C67.5766 22.6514 67.9499 22.6559 68.1983 22.8663C68.651 23.2499 69.1617 23.5623 69.7307 23.8037C70.5124 24.1254 71.3396 24.2864 72.2134 24.2864C72.7191 24.2864 73.0986 24.2174 73.3515 24.0795C73.6274 23.9416 73.7651 23.7462 73.7651 23.4933C73.7651 23.1256 73.5698 22.8497 73.1788 22.6658C72.8112 22.459 72.317 22.2866 71.6961 22.1487C71.0983 21.9878 70.4663 21.8039 69.7998 21.597C69.1329 21.3671 68.4894 21.0683 67.8685 20.7006C67.2477 20.3328 66.7419 19.8156 66.3513 19.149C65.9833 18.4824 65.7995 17.6319 65.7995 16.5976C65.7995 15.5172 66.0869 14.5748 66.6617 13.7703C67.2592 12.9428 68.0869 12.2992 69.1444 11.8395C70.2019 11.3568 71.4432 11.1155 72.8684 11.1155C74.3169 11.1155 75.696 11.3683 77.0064 11.874C78.1211 12.2845 79.2403 13.0798 80.0453 13.9165C80.2702 14.1506 80.2263 14.5232 79.9685 14.7212L77.1145 16.9164C76.8744 17.101 76.5368 17.0636 76.3119 16.8611C75.9201 16.5084 75.5496 16.3247 75.041 16.1493C74.3745 15.8965 73.7651 15.7701 73.2133 15.7701C72.6846 15.7701 72.3055 15.8505 72.0756 16.0115C71.8458 16.1493 71.7307 16.3447 71.7307 16.5976C71.7307 16.8964 71.9144 17.1378 72.2824 17.3217C72.6731 17.5055 73.1673 17.6779 73.7651 17.8388C74.386 17.9767 75.018 18.1606 75.6619 18.3905C76.3284 18.6204 76.9603 18.9421 77.5582 19.3559C78.179 19.7467 78.6733 20.2753 79.0409 20.9419C79.4319 21.6085 79.6272 22.4705 79.6272 23.5278C79.6272 25.2058 78.9837 26.5389 77.6963 27.5272C76.4089 28.4929 74.6845 28.9756 72.5238 28.9756Z" fill="black"/>
<path fill-rule="evenodd" clip-rule="evenodd" d="M84.1343 27.7687C85.5829 28.5046 87.2494 28.8722 89.1346 28.8722C90.6288 28.8722 91.9622 28.6309 93.1344 28.1482C94.1574 27.735 95.0456 27.1541 95.7988 26.4046C96.0147 26.19 96.0019 25.843 95.7869 25.628L93.4658 23.3077C93.2302 23.0722 92.847 23.0875 92.6003 23.3113C92.2056 23.6692 91.7743 23.9484 91.3068 24.1486C90.6863 24.4245 89.9623 24.5624 89.1346 24.5624C88.2608 24.5624 87.5253 24.39 86.9278 24.0452C86.33 23.7004 85.8703 23.1948 85.5484 22.5282C85.4694 22.3593 85.4003 22.1823 85.3407 21.9969L96.7207 21.9441C96.9846 21.9429 97.2161 21.7634 97.2679 21.5048C97.3247 21.2226 97.3604 20.966 97.3761 20.7353C97.4217 20.3675 97.4447 20.0112 97.4447 19.6664C97.4447 18.0344 97.0656 16.5863 96.307 15.3221C95.5714 14.0349 94.5369 13.035 93.2035 12.3224C91.8931 11.5869 90.3874 11.2191 88.6864 11.2191C86.9389 11.2191 85.3646 11.6099 83.9621 12.3914C82.583 13.15 81.4909 14.1958 80.6863 15.529C79.8816 16.8392 79.4795 18.3447 79.4795 20.0457C79.4795 21.7696 79.8931 23.2982 80.7208 24.6313C81.5485 25.9647 82.6862 27.0102 84.1343 27.7687ZM85.328 18.1243C85.3818 17.9527 85.4435 17.7886 85.5138 17.6322C85.8127 16.9656 86.2379 16.4484 86.7897 16.0806C87.3415 15.7129 87.9965 15.529 88.7551 15.529C89.4907 15.529 90.1 15.6899 90.5827 16.0117C91.0654 16.3335 91.4334 16.8047 91.6863 17.4253C91.7694 17.6216 91.8401 17.8365 91.8981 18.0699L85.328 18.1243Z" fill="black"/>
<path d="M90.3296 8.82522V4.37464H91.4611V8.82522H90.3296ZM88.9575 5.31659V4.34302H92.8328V5.31659H88.9575ZM93.0314 8.82522V4.34302H93.8472L95.5667 6.94128H95.181L96.8943 4.34302H97.7097V8.82522H96.5909V6.21429L96.7677 6.26487L95.7373 7.8137H95.0038L93.98 6.26487L94.1568 6.21429V8.82522H93.0314Z" fill="black"/>
<path d="M8.14258 1.9907C8.14258 1.64852 8.39738 1.35996 8.73693 1.31749L12.808 0.808683C13.2129 0.758074 13.5706 1.07377 13.5706 1.48185V14.8703C13.5706 15.2784 13.2129 15.5941 12.808 15.5435L8.73693 15.0346C8.39738 14.9922 8.14258 14.7036 8.14258 14.3615V1.9907Z" fill="black"/>
<path d="M0 3.68671C0 3.34458 0.254802 3.05597 0.594345 3.01354L4.66538 2.50474C5.07038 2.45409 5.42805 2.76983 5.42805 3.17791V13.8526C5.42805 14.2607 5.07038 14.5764 4.66538 14.5258L0.594345 14.0169C0.254802 13.9745 0 13.6859 0 13.3438V3.68671Z" fill="black"/>
<path d="M21.1984 1.94166C21.5002 2.01718 21.7123 2.28852 21.7123 2.59981V8.25541C21.7123 8.59754 21.4574 8.88615 21.1178 8.92857L17.0468 9.43741C16.6419 9.48802 16.2842 9.17228 16.2842 8.76421V1.58218C16.2842 1.14084 16.699 0.817009 17.1272 0.924022L21.1984 1.94166Z" fill="black"/>
<path d="M29.1748 4.29634C29.1748 3.985 28.9627 3.71359 28.6609 3.6381L24.5899 2.62033C24.1615 2.51326 23.7466 2.83714 23.7466 3.27857V8.426C23.7466 8.83413 24.1043 9.14991 24.5093 9.09929L28.5803 8.59039C28.9199 8.54796 29.1748 8.25931 29.1748 7.91714V4.29634Z" fill="black"/>
<path d="M29.1759 11.2288L15.9449 11.568C16.1364 14.0563 18.2115 15.9778 20.7074 15.9778H23.7476V18.865L0 16.6562V30.7998L29.1759 28.7648V11.2288Z" fill="black"/>
</svg>
