<svg width="115" height="31" viewBox="0 0 115 31" fill="none" xmlns="http://www.w3.org/2000/svg">
<path d="M42.6737 25.1016C40.8534 25.1016 39.263 24.6899 37.9026 23.8661C36.5419 23.0424 35.4847 21.8985 34.7311 20.4341C33.9771 18.9516 33.6001 17.231 33.6001 15.2725C33.6001 13.2957 33.9861 11.5568 34.7586 10.0559C35.5491 8.53672 36.6616 7.35614 38.0955 6.51419C39.5481 5.65391 41.2673 5.22375 43.2529 5.22375C45.5145 5.22375 47.3897 5.76373 48.8792 6.84364C50.3684 7.92356 51.3337 9.4153 51.7751 11.3189H47.8311C47.537 10.422 47.0037 9.72649 46.2316 9.23226C45.4592 8.71976 44.4664 8.46353 43.2529 8.46353C41.3223 8.46353 39.8332 9.0767 38.785 10.3031C37.7369 11.5111 37.213 13.1767 37.213 15.3C37.213 17.4232 37.7279 19.0704 38.7575 20.2421C39.8057 21.395 41.2214 21.9716 43.0047 21.9716C44.7515 21.9716 46.0659 21.5049 46.9487 20.5713C47.8495 19.6197 48.3919 18.375 48.5757 16.8375H43.6943V14.2017H52.1336V24.772H48.8792L48.6032 22.2461C47.9783 23.1613 47.1969 23.8661 46.2591 24.3603C45.3213 24.8545 44.1263 25.1016 42.6737 25.1016Z" fill="black"/>
<path d="M54.104 24.7721V5.00403H57.6341V24.7721H54.104Z" fill="black"/>
<path d="M66.426 25.1016C65.1022 25.1016 63.9072 24.7997 62.8406 24.1957C61.7928 23.5917 60.9563 22.7586 60.3312 21.6971C59.7244 20.617 59.4209 19.3726 59.4209 17.9631C59.4209 16.5537 59.7335 15.3182 60.3587 14.2565C60.9838 13.1766 61.8203 12.3346 62.8684 11.7306C63.9347 11.1266 65.1297 10.8246 66.4535 10.8246C67.7589 10.8246 68.9358 11.1266 69.9839 11.7306C71.0502 12.3346 71.8866 13.1766 72.4934 14.2565C73.1186 15.3182 73.4312 16.5537 73.4312 17.9631C73.4312 19.3726 73.1186 20.617 72.4934 21.6971C71.8866 22.7586 71.0502 23.5917 69.9839 24.1957C68.9174 24.7997 67.7314 25.1016 66.426 25.1016ZM66.426 22.0541C67.3453 22.0541 68.1453 21.7155 68.8255 21.038C69.5057 20.3425 69.8457 19.3175 69.8457 17.9631C69.8457 16.6086 69.5057 15.5927 68.8255 14.9155C68.1453 14.22 67.3544 13.8722 66.4535 13.8722C65.5161 13.8722 64.7071 14.22 64.0266 14.9155C63.3648 15.5927 63.0338 16.6086 63.0338 17.9631C63.0338 19.3175 63.3648 20.3425 64.0266 21.038C64.7071 21.7155 65.5067 22.0541 66.426 22.0541Z" fill="black"/>
<path d="M80.862 25.1016C79.6485 25.1016 78.5823 24.9092 77.6629 24.5249C76.7436 24.1222 76.0081 23.5733 75.4567 22.8778C74.9049 22.182 74.5739 21.3766 74.4639 20.4614H78.0215C78.1318 20.9923 78.426 21.4501 78.9039 21.8344C79.4003 22.2003 80.0349 22.3833 80.807 22.3833C81.5791 22.3833 82.1398 22.228 82.4893 21.9168C82.8569 21.6057 83.0411 21.2487 83.0411 20.846C83.0411 20.2601 82.7835 19.8667 82.2686 19.6654C81.7538 19.4457 81.0367 19.2353 80.1174 19.034C79.5291 18.9058 78.9314 18.7502 78.3247 18.5672C77.7179 18.3841 77.1571 18.1553 76.6426 17.8807C76.1459 17.5878 75.7414 17.2218 75.4291 16.7825C75.1166 16.3249 74.9603 15.7666 74.9603 15.1077C74.9603 13.8996 75.4382 12.8838 76.3941 12.0601C77.3688 11.2364 78.7292 10.8246 80.4759 10.8246C82.0939 10.8246 83.3812 11.1998 84.337 11.9503C85.3117 12.7007 85.8906 13.7349 86.0747 15.0528H82.7375C82.5353 14.0461 81.7722 13.5427 80.4484 13.5427C79.7867 13.5427 79.2718 13.6708 78.9039 13.9271C78.5547 14.1833 78.38 14.5037 78.38 14.888C78.38 15.2907 78.6466 15.611 79.1799 15.849C79.7129 16.0869 80.4209 16.3066 81.3034 16.5079C82.2596 16.7276 83.133 16.9747 83.9235 17.2492C84.7325 17.5055 85.3758 17.899 85.8541 18.4298C86.332 18.9425 86.5711 19.6837 86.5711 20.6537C86.5896 21.4958 86.3689 22.2554 85.9091 22.9326C85.4496 23.6097 84.7875 24.1406 83.9235 24.5249C83.0592 24.9092 82.0389 25.1016 80.862 25.1016Z" fill="black"/>
<path d="M93.9731 25.1016C92.7596 25.1016 91.6934 24.9092 90.7741 24.5249C89.8547 24.1222 89.1192 23.5733 88.5675 22.8778C88.0161 22.182 87.6851 21.3766 87.5747 20.4614H91.1326C91.243 20.9923 91.5371 21.4501 92.015 21.8344C92.5114 22.2003 93.1457 22.3833 93.9181 22.3833C94.6902 22.3833 95.251 22.228 95.6004 21.9168C95.968 21.6057 96.1518 21.2487 96.1518 20.846C96.1518 20.2601 95.8946 19.8667 95.3798 19.6654C94.8649 19.4457 94.1478 19.2353 93.2285 19.034C92.6402 18.9058 92.0425 18.7502 91.4358 18.5672C90.8291 18.3841 90.2683 18.1553 89.7534 17.8807C89.2571 17.5878 88.8526 17.2218 88.54 16.7825C88.2274 16.3249 88.0711 15.7666 88.0711 15.1077C88.0711 13.8996 88.5494 12.8838 89.5053 12.0601C90.4799 11.2364 91.8403 10.8246 93.5871 10.8246C95.205 10.8246 96.4919 11.1998 97.4482 11.9503C98.4225 12.7007 99.0017 13.7349 99.1855 15.0528H95.8486C95.6464 14.0461 94.8834 13.5427 93.5596 13.5427C92.8975 13.5427 92.3826 13.6708 92.015 13.9271C91.6656 14.1833 91.4911 14.5037 91.4911 14.888C91.4911 15.2907 91.7575 15.611 92.2907 15.849C92.824 16.0869 93.5317 16.3066 94.4145 16.5079C95.3704 16.7276 96.2437 16.9747 97.0343 17.2492C97.8436 17.5055 98.4869 17.899 98.9648 18.4298C99.4431 18.9425 99.6819 19.6837 99.6819 20.6537C99.7004 21.4958 99.4797 22.2554 99.0202 22.9326C98.5604 23.6097 97.8986 24.1406 97.0343 24.5249C96.1703 24.9092 95.15 25.1016 93.9731 25.1016Z" fill="black"/>
<path d="M102.413 30.8126L105.584 23.8662H104.757L99.4341 11.1542H103.268L107.101 20.7363L111.1 11.1542H114.851L106.164 30.8126H102.413Z" fill="black"/>
<path d="M7.61579 22.5721L21.5302 8.72013L19.2421 6.44226L5.32764 20.2943L7.61579 22.5721Z" fill="black"/>
<path d="M13.1169 8.72041L7.61579 14.1975L5.32764 11.9194L10.8287 6.44226L13.1169 8.72041Z" fill="black"/>
<path d="M16.0294 22.5731L21.5304 17.0961L19.2423 14.818L13.7412 20.295L16.0294 22.5731Z" fill="black"/>
<path fill-rule="evenodd" clip-rule="evenodd" d="M0 27.8762V0.816162H27.1818V27.8762H0ZM3.23592 4.0376H23.9459V24.6548H3.23592V4.0376Z" fill="black"/>
</svg>
