<svg width="147" height="31" viewBox="0 0 147 31" fill="none" xmlns="http://www.w3.org/2000/svg">
<path d="M64.6733 29.0398C62.4408 29.0398 60.5238 28.6452 58.9228 27.856C57.3218 27.0668 56.0138 26.0409 54.9988 24.7782C54.0068 23.5155 53.2738 22.1401 52.8003 20.6519C52.3268 19.1638 52.0898 17.7319 52.0898 16.3565V15.6124C52.0898 14.0792 52.3268 12.5684 52.8003 11.0803C53.2963 9.5921 54.0518 8.23926 55.0663 7.02165C56.0813 5.80404 57.3668 4.83451 58.9228 4.11294C60.5013 3.36888 62.3618 2.99683 64.5038 2.99683C66.7363 2.99683 68.6758 3.40268 70.3223 4.21443C71.9908 5.00359 73.3213 6.13101 74.3133 7.59663C75.3058 9.03971 75.9033 10.7308 76.1063 12.6699H71.2693C71.0888 11.5425 70.6828 10.5955 70.0513 9.82887C69.4428 9.03971 68.6648 8.45343 67.7173 8.07013C66.7703 7.66428 65.6993 7.46135 64.5038 7.46135C63.2863 7.46135 62.2038 7.67552 61.2568 8.10397C60.3098 8.50983 59.5203 9.09606 58.8888 9.86272C58.2573 10.6293 57.7728 11.5313 57.4343 12.5684C57.1188 13.6057 56.9608 14.7556 56.9608 16.0183C56.9608 17.2359 57.1188 18.3633 57.4343 19.4005C57.7728 20.4377 58.2688 21.3509 58.9228 22.1401C59.5768 22.9067 60.3773 23.5043 61.3243 23.9327C62.2938 24.3611 63.4103 24.5753 64.6733 24.5753C66.5223 24.5753 68.0783 24.1243 69.3413 23.2224C70.6263 22.2979 71.4043 21.0127 71.6753 19.3667H76.5123C76.2868 21.1254 75.6893 22.7376 74.7193 24.2032C73.7498 25.6689 72.4193 26.8413 70.7278 27.7207C69.0368 28.6001 67.0183 29.0398 64.6733 29.0398Z" fill="#FC4F4F"/>
<path d="M78.739 28.3971V3.70703H83.441V28.3971H78.739ZM76.439 7.22452V3.70703H83.441V7.22452H76.439Z" fill="#FC4F4F"/>
<path d="M95.9459 29.0397C94.3224 29.0397 92.8904 28.7805 91.6499 28.2618C90.4099 27.7432 89.3609 27.0443 88.5044 26.1649C87.6474 25.263 86.9934 24.2483 86.5424 23.1209C86.1139 21.9935 85.8994 20.821 85.8994 19.6034V18.8931C85.8994 17.6305 86.1249 16.4354 86.5759 15.308C87.0494 14.1581 87.7149 13.1434 88.5719 12.264C89.4514 11.3621 90.5114 10.6632 91.7514 10.1671C92.9919 9.64848 94.3899 9.38916 95.9459 9.38916C97.5019 9.38916 98.8999 9.64848 100.14 10.1671C101.38 10.6632 102.429 11.3621 103.286 12.264C104.165 13.1434 104.831 14.1581 105.282 15.308C105.733 16.4354 105.958 17.6305 105.958 18.8931V19.6034C105.958 20.821 105.733 21.9935 105.282 23.1209C104.853 24.2483 104.211 25.263 103.354 26.1649C102.497 27.0443 101.448 27.7432 100.208 28.2618C98.9679 28.7805 97.5469 29.0397 95.9459 29.0397ZM95.9459 25.0149C97.0959 25.0149 98.0654 24.7669 98.8549 24.2709C99.6444 23.7523 100.242 23.0645 100.648 22.2077C101.053 21.3284 101.256 20.3362 101.256 19.2314C101.256 18.104 101.042 17.1118 100.614 16.255C100.208 15.3757 99.5989 14.6879 98.7874 14.1919C97.9979 13.6733 97.0509 13.414 95.9459 13.414C94.8409 13.414 93.8824 13.6733 93.0709 14.1919C92.2814 14.6879 91.6724 15.3757 91.2439 16.255C90.8154 17.1118 90.6014 18.104 90.6014 19.2314C90.6014 20.3362 90.8044 21.3284 91.2104 22.2077C91.6389 23.0645 92.2474 23.7523 93.0369 24.2709C93.8259 24.7669 94.7959 25.0149 95.9459 25.0149Z" fill="#FC4F4F"/>
<path d="M114.642 28.9722C112.522 28.9722 110.876 28.2732 109.703 26.8752C108.553 25.4772 107.978 23.4028 107.978 20.6519V9.99805H112.68V21.0578C112.68 22.1852 112.996 23.0872 113.627 23.7636C114.258 24.4175 115.115 24.7444 116.198 24.7444C117.28 24.7444 118.16 24.3949 118.836 23.6959C119.535 22.997 119.885 22.0499 119.885 20.8549V9.99805H124.587V28.3972H120.866V20.5843H121.238C121.238 22.4332 121.001 23.9778 120.527 25.218C120.054 26.4581 119.344 27.3938 118.396 28.0252C117.449 28.6565 116.265 28.9722 114.845 28.9722H114.642Z" fill="#FC4F4F"/>
<path d="M135.907 29.0059C134.622 29.0059 133.438 28.7691 132.355 28.2956C131.273 27.8221 130.337 27.157 129.548 26.3001C128.759 25.4433 128.15 24.4512 127.721 23.3238C127.293 22.1739 127.079 20.9337 127.079 19.6034V18.8931C127.079 17.5853 127.282 16.3564 127.687 15.2065C128.116 14.0566 128.702 13.0532 129.446 12.1963C130.213 11.3395 131.126 10.6744 132.186 10.2009C133.269 9.70477 134.464 9.45675 135.772 9.45675C137.215 9.45675 138.478 9.77247 139.56 10.4038C140.665 11.0126 141.545 11.9371 142.199 13.1772C142.853 14.4173 143.214 15.9731 143.281 17.8446L141.894 16.2212V3.70703H146.596V28.3971H142.875V20.5842H143.687C143.619 22.4557 143.236 24.0228 142.537 25.2855C141.838 26.5256 140.913 27.4613 139.763 28.0927C138.636 28.7015 137.35 29.0059 135.907 29.0059ZM136.956 25.0487C137.88 25.0487 138.726 24.8458 139.493 24.4399C140.259 24.0115 140.868 23.4027 141.319 22.6135C141.793 21.8018 142.03 20.8548 142.03 19.7725V18.4196C142.03 17.3373 141.793 16.4354 141.319 15.7138C140.846 14.9698 140.226 14.4061 139.459 14.0228C138.692 13.6169 137.858 13.4139 136.956 13.4139C135.941 13.4139 135.039 13.662 134.25 14.158C133.483 14.6315 132.874 15.308 132.423 16.1874C131.995 17.0667 131.78 18.0926 131.78 19.2651C131.78 20.4377 132.006 21.4636 132.457 22.3429C132.908 23.1998 133.517 23.865 134.284 24.3384C135.073 24.8119 135.964 25.0487 136.956 25.0487Z" fill="#FC4F4F"/>
<path d="M34.3751 30.9935C32.7506 30.9935 31.7498 30.2436 30.1146 29.3604C28.4793 28.4772 23.7498 24.9212 23.7498 20.4948C23.7498 17.492 22.9757 15.0633 21.6573 13.1277C20.3487 11.2071 18.576 9.87637 16.7318 8.93703C15.8431 8.48449 14.9183 8.11438 13.9974 7.80852C13.4605 7.63034 13.149 7.05396 13.3819 6.53867C14.8582 3.27075 18.1461 0.99707 21.9654 0.99707C27.1644 0.99707 31.3792 5.21117 31.3792 10.4098C31.3792 11.5219 31.1863 12.5892 30.8321 13.5796C32.3326 12.5685 34.1406 11.9784 36.0861 11.9784C41.2851 11.9784 45.4996 16.1925 45.4996 21.3912C45.4996 27.6494 39.9996 30.9935 34.3751 30.9935Z" fill="#FC4F4F"/>
<path d="M0 20.6068C0 25.5684 3.2715 29.7025 7.60545 30.6159C8.2744 30.8603 8.99659 30.9936 9.74999 30.9936H24.3762C24.8667 30.9936 25.0803 30.3376 24.7058 30.0208C22.1496 27.8582 20.25 24.8104 20.25 20.4948C20.25 18.1235 19.6494 16.3964 18.7646 15.098C17.8698 13.7846 16.6113 12.8031 15.1433 12.0551C13.6616 11.3006 12.053 10.8199 10.5168 10.4791C10.155 10.4335 9.78684 10.4098 9.41379 10.4098C4.2146 10.4098 0 14.9752 0 20.6068Z" fill="#FC4F4F"/>
</svg>
