<svg width="100" height="100" viewBox="0 0 100 100" fill="none" xmlns="http://www.w3.org/2000/svg">
<rect width="100" height="100" fill="#FC4F4F"/>
<path d="M66.6861 71.3388C64.3724 71.3388 62.947 70.2708 60.618 69.0129C58.289 67.755 51.5531 62.6904 51.5531 56.386C51.5531 52.1093 50.4505 48.6502 48.5728 45.8936C46.7091 43.1581 44.1843 41.2629 41.5577 39.925C40.292 39.2805 38.9748 38.7534 37.6632 38.3177C36.8986 38.064 36.4549 37.2431 36.7867 36.5092C38.8893 31.8549 43.572 28.6166 49.0117 28.6166C56.4162 28.6166 62.4192 34.6185 62.4192 42.0225C62.4192 43.6065 62.1444 45.1266 61.6399 46.5371C63.777 45.097 66.3521 44.2567 69.1229 44.2567C76.5276 44.2567 82.53 50.2586 82.53 57.6627C82.53 66.576 74.6967 71.3388 66.6861 71.3388Z" fill="white"/>
<path d="M17.7275 56.5457C17.7275 63.6121 22.3869 69.5 28.5595 70.801C29.5123 71.1491 30.5409 71.3389 31.6139 71.3389H52.4451C53.1437 71.3389 53.4479 70.4047 52.9146 69.9534C49.274 66.8733 46.5684 62.5326 46.5684 56.3861C46.5684 53.0088 45.713 50.549 44.4529 48.6997C43.1785 46.8292 41.3861 45.4312 39.2952 44.366C37.185 43.2913 34.8939 42.6067 32.7061 42.1213C32.1908 42.0563 31.6664 42.0226 31.1351 42.0226C23.7301 42.0226 17.7275 48.5248 17.7275 56.5457Z" fill="white"/>
</svg>
